<svg width="1291" height="884" viewBox="0 0 1291 884" fill="none" xmlns="http://www.w3.org/2000/svg">
<path fill-rule="evenodd" clip-rule="evenodd" d="M0.731755 32.4991C1.29581 34.2307 3.96045 41.7829 6.65226 49.2836C9.34482 56.7832 15.0888 72.8915 19.4178 85.078C23.7459 97.2657 33.9538 126.007 42.102 148.947C50.2502 171.887 57.8737 193.267 59.0441 196.457C60.2146 199.648 63.8273 209.96 67.073 219.373C70.3187 228.787 76.2412 245.525 80.2345 256.569C84.2278 267.613 90.4815 285.203 94.1306 295.661C97.7805 306.117 102.849 320.539 105.393 327.712C107.937 334.883 114.703 353.952 120.429 370.087C126.154 386.223 131.584 401.453 132.496 403.933C134.08 408.237 145.455 440.33 153.763 463.932C155.915 470.043 161.349 485.269 165.837 497.767C170.326 510.264 176.356 527.291 179.237 535.604C182.117 543.917 191.143 569.486 199.292 592.424C207.442 615.362 221.485 654.982 230.498 680.469C239.513 705.954 247.855 729.403 249.036 732.577C250.218 735.751 255.519 750.725 260.815 765.852C266.112 780.98 271.403 795.968 272.574 799.158C273.744 802.348 276.194 809.312 278.017 814.633C279.839 819.955 281.489 824.417 281.683 824.55C281.876 824.683 283.5 829.143 285.291 834.46C288.381 843.635 317.227 925.275 323.254 941.903C328.87 957.393 344.328 1001.05 349.527 1016.09C352.992 1026.12 355.94 1034.4 356.077 1034.5C356.365 1034.69 368.334 1068.74 370.452 1075.38L371.853 1079.77L742.609 540.318L1113.37 0.863758L1110.36 0.795638C1108.71 0.758531 1083.39 1.34837 1054.09 2.10691C1024.8 2.86545 998.661 3.52907 996.01 3.58049C993.358 3.63291 983.397 3.89107 973.875 4.15346C964.353 4.41582 954.396 4.66827 951.749 4.71386C946.496 4.8036 906.724 5.84901 849.348 7.40752C829.167 7.95537 802.728 8.61319 790.595 8.86896C763.312 9.44364 684.214 11.4711 662.654 12.1471C644.45 12.7185 557.855 14.9612 550.597 15.0496C547.959 15.0824 535.826 15.3876 523.634 15.7293C511.441 16.0709 487.164 16.6977 469.683 17.1223C430.49 18.0752 384.089 19.2636 349.35 20.2054C325.454 20.8539 261.238 22.5085 188.886 24.3437C147.064 25.4026 145.153 25.5351 144.882 27.3862C144.725 28.4519 144.272 28.444 143.654 27.3637C142.796 25.862 135.325 25.7068 104.485 26.5484C69.8562 27.493 39.1843 28.3016 33.9089 28.4072C0.126513 29.0896 -0.357669 29.1495 0.731755 32.4991ZM35.4522 34.1093C47.5805 33.8844 58.465 33.8479 59.6407 34.0292C61.042 34.2443 62.6629 37.3206 64.3465 42.957C72.2822 69.5198 89.0078 126.175 94.1419 143.884C97.4089 155.156 101.8 170.119 103.898 177.137C107.541 189.318 111.168 201.632 119.699 230.781C121.819 238.026 126.962 255.453 131.129 269.507C135.295 283.561 140.646 301.781 143.019 309.995C145.393 318.21 149.58 332.58 152.323 341.93C155.068 351.279 159.323 365.789 161.781 374.174C164.239 382.557 167.663 394.035 169.389 399.678C171.116 405.322 173.091 411.789 173.779 414.05C174.467 416.312 179.477 433.487 184.913 452.218C195.221 487.734 198.188 497.864 226.946 595.683C236.574 628.431 246.557 662.391 249.132 671.15C251.705 679.911 255.371 692.37 257.276 698.841C271.955 748.674 289.411 808.001 292.103 817.203C298.897 840.432 303.763 856.879 311.73 883.544C320.617 913.288 322.782 923.118 316.512 905.253C307.041 878.27 300.486 859.779 298.709 855.04C296.996 850.468 271.831 779.587 264.229 757.92C258.553 741.742 243.682 699.742 237.665 682.892C234.342 673.59 228.301 656.581 224.239 645.093C220.176 633.607 216.119 622.161 215.223 619.66C214.326 617.158 210.273 605.708 206.214 594.215C202.155 582.722 197.975 571.012 196.923 568.193C194.823 562.563 169.614 491.421 158.327 459.269C154.41 448.114 150.463 436.953 149.555 434.468C148.648 431.983 141.355 411.456 133.349 388.853C114.005 334.232 91.3571 270.46 71.7829 215.486C62.9836 190.775 55.4897 169.651 55.1293 168.544C53.5275 163.625 28.1937 91.9924 24.1995 81.0862C23.2894 78.6045 20.9583 71.9135 19.0194 66.2177C17.0796 60.523 15.3264 55.749 15.1215 55.6082C14.7921 55.3818 11.8906 47.0966 9.03016 38.2162C7.78506 34.3498 5.78738 34.6606 35.4522 34.1093ZM92.4985 34.6803L115.974 35.6985L121.99 61.4608C127.836 86.5006 133.504 110.384 135.589 118.766C137.135 124.979 151.852 187.344 156.977 209.396C159.453 220.055 162.484 232.924 163.712 237.994C164.939 243.065 167.203 252.689 168.742 259.382C170.282 266.076 176.699 293.156 183.003 319.56C189.307 345.965 196.91 378.086 199.898 390.942C202.886 403.796 206.56 419.385 208.063 425.584C209.565 431.782 212.781 445.384 215.21 455.81C217.824 467.032 220.307 474.727 221.294 474.67C222.286 474.612 222.375 474.902 221.512 475.387C220.681 475.853 222.623 487.001 226.073 501.561C229.377 515.511 237.159 548.449 243.367 574.756C249.573 601.065 264.838 665.596 277.289 718.159C289.739 770.723 301.314 819.746 303.01 827.1C304.706 834.456 306.474 842.115 306.938 844.121C309.084 853.392 305.121 840.762 292.87 799.282C285.57 774.565 278.42 750.272 276.98 745.298C275.541 740.324 263.355 698.893 249.9 653.228C236.445 607.563 220.234 552.414 213.877 530.675C202.861 493.005 200.006 483.287 193.936 462.814C184.891 432.302 147.235 304.187 143.058 289.714C140.295 280.142 135.078 262.378 131.464 250.237C123.992 225.139 84.1923 89.7481 74.5835 56.7449C71.0851 44.7279 68.4029 34.6193 68.6225 34.2801C68.842 33.9409 79.5871 34.1211 92.4985 34.6803ZM143.887 38.3555L164.865 40.3943L172.694 83.4949C177 107.199 181.118 127.004 181.844 127.503C182.572 128.003 182.906 129.701 182.588 131.276C181.947 134.439 192.721 196.455 194.071 197.383C194.535 197.702 194.809 199.338 194.68 201.019C194.55 202.699 205.15 262.784 218.234 334.541C231.318 406.298 249.758 507.58 259.21 559.612C268.663 611.644 281.802 683.941 288.408 720.269C295.013 756.598 300.232 786.594 300.003 786.927C299.398 787.807 298.894 785.953 294.799 767.81C292.766 758.805 287.515 736.333 283.129 717.869C268.828 657.677 267.428 651.766 262.869 632.381C247.638 567.6 239.725 534.298 238.134 528.28C237.69 526.6 236.524 521.497 235.544 516.942C234.564 512.387 229.188 489.516 223.597 466.119C218.005 442.721 210.229 409.996 206.317 393.398C198.804 361.517 173.449 254.289 166.667 225.707C164.462 216.411 160.871 201.174 158.686 191.848C156.502 182.521 151.343 160.669 147.221 143.288C143.099 125.907 136.781 99.2145 133.182 83.972C129.581 68.729 125.6 52.0886 124.333 46.9918C123.068 41.8956 122.229 37.4084 122.471 37.0212C122.711 36.6334 132.349 37.2344 143.887 38.3555ZM192.034 44.9128L210.216 47.5607L211.91 60.4497C212.841 67.5382 213.983 76.3563 214.448 80.0433C215.611 89.2593 219.048 115.92 221.589 135.418C222.75 144.331 224.081 155.07 224.549 159.284C225.016 163.497 226.684 176.639 228.255 188.488C229.826 200.338 231.505 212.993 231.984 216.61C232.464 220.227 233.336 227.409 233.922 232.571C234.995 242.023 244.11 313.847 246.014 327.86C247.659 339.964 258.61 426.277 259.447 433.727C259.866 437.466 261.207 448.026 262.427 457.194C263.645 466.362 265.918 483.961 267.476 496.302C273.291 542.367 276.649 569.041 277.351 574.735C278.324 582.643 287.457 654.517 289.128 667.437C289.862 673.107 291.969 689.256 293.81 703.324C295.651 717.392 297.091 730.293 297.01 731.993C296.871 734.928 296.836 734.925 296.328 731.941C295.518 727.177 278.182 632.478 276.884 625.722C276.259 622.475 273.282 606.019 270.265 589.153C267.25 572.287 264.048 557.984 263.152 557.368C262.256 556.753 262.06 555.465 262.718 554.509C263.773 552.973 262.59 550.974 259.998 549.917C259.516 549.721 259.753 549.206 260.524 548.774C261.295 548.341 261.485 547.684 260.948 547.315C260.411 546.946 260.443 545.957 261.019 545.118C261.595 544.28 261.063 538.342 259.836 531.925C258.609 525.508 257.486 519.355 257.342 518.255C256.952 515.294 235.458 396.988 231.686 377.043C231.508 376.105 230.308 369.398 229.021 362.138C226.969 350.566 189.526 144.229 176.017 70.0478C173.301 55.131 171.703 42.7771 172.465 42.5956C173.227 42.414 182.033 43.456 192.034 44.9128ZM227.692 29.1685C250.505 28.5971 288.788 27.6097 312.764 26.9771C336.74 26.3445 358.521 25.7914 361.166 25.7482C365.727 25.6741 398.42 24.8544 437.903 23.8221C447.796 23.5636 458.361 23.316 461.38 23.2721C464.4 23.2281 479.982 22.7983 496.007 22.3162C512.032 21.8341 527.309 21.4029 529.955 21.3596C532.601 21.3153 545.038 21.0124 557.593 20.6874C570.148 20.3613 582.283 20.0526 584.561 20.0008C612.568 19.3622 662.133 18.0566 671.695 17.7033C677.6 17.4858 682.597 17.4214 682.8 17.561C683.003 17.7005 687.144 17.6073 692.001 17.3545C696.86 17.1012 712.961 16.5978 727.784 16.235C742.606 15.8721 755.686 15.5241 756.851 15.4605C762.345 15.1624 780.672 14.812 780.946 15.0003C781.115 15.117 786.171 15.0262 792.181 14.7988C805.312 14.3032 843.597 13.2181 852.231 13.098C855.626 13.0511 869.323 12.6938 882.67 12.3037C896.016 11.9148 911.279 11.5033 916.587 11.3913C921.896 11.2794 936.205 10.9222 948.385 10.598C975.577 9.87404 969.609 10.0293 1025.16 8.61627C1096.11 6.81363 1101.8 6.71203 1102.57 7.23016C1102.97 7.4957 1095.25 19.1681 1085.42 33.1689L1067.56 58.6246L1044.93 57.945C1032.48 57.5713 1004.93 56.7256 983.716 56.0661C920.125 54.0917 891.909 53.2309 865.264 52.4562C839.823 51.7161 808.827 50.7654 752.149 48.9908C735.323 48.4632 708.98 47.6477 693.61 47.1764C678.239 46.7063 651.296 45.8722 633.738 45.3228C598.988 44.2355 562.751 43.1383 523.257 41.9787C489.254 40.9795 451.863 39.8306 410.15 38.5016C391.135 37.8959 367.762 37.2063 358.211 36.9684C348.659 36.7305 324.094 35.9954 303.622 35.3369C283.15 34.6772 258.588 33.9375 249.041 33.6926C226.601 33.1176 185.585 31.6964 184.009 31.4395C179.468 30.6987 191.351 30.0814 227.692 29.1685ZM233.035 51.6997C241.101 53.3673 248.346 55.4149 249.136 56.2476C249.925 57.0803 252.601 84.1322 255.083 116.363C259.947 179.541 261.346 194.098 262.644 194.99C263.103 195.305 262.997 196.262 262.409 197.117C261.822 197.972 262.972 219.652 264.965 245.295C268.766 294.181 277.604 410.454 284.593 503.476C288.457 554.907 288.892 558.265 291.559 557.07C294.2 555.886 294.265 554.05 292.448 531.486C290.008 501.17 273.096 280.459 266.523 193.154C263.827 157.362 260.325 112.354 258.738 93.1385C256.788 69.528 256.424 58.1987 257.615 58.1988C259.181 58.1976 278.603 63.3652 284.425 65.331C286.203 65.9313 286.8 71.5324 287.249 91.8038C287.885 120.572 288.181 130.96 288.874 148.914C289.34 161.028 291.95 255.015 292.717 287.293C292.931 296.315 293.283 308.852 293.497 315.152C294.09 332.512 296.25 410.072 296.533 424.249C296.672 431.116 297.285 437.147 297.896 437.65C298.508 438.154 298.643 439.661 298.197 440.998C297.752 442.334 297.493 450.024 297.623 458.083C297.856 472.617 300.483 570.15 301.236 592.19C301.733 606.769 302.613 639.069 302.821 650.365C302.91 655.129 302.661 657.27 302.269 655.122C301.394 650.324 301.939 656.771 298.162 606.556C295.331 568.943 294.612 563.666 292.253 563.268C289.837 562.86 290.056 569.611 294.447 630.584C297.13 667.858 299.146 698.23 298.926 698.079C298.707 697.928 297.353 688.242 295.919 676.556C294.485 664.868 291.34 639.937 288.93 621.152C286.521 602.367 283.416 577.97 282.032 566.936C279.143 543.922 275.51 515.311 268.26 458.468C265.453 436.456 259.295 388.032 254.577 350.858C249.859 313.685 243.739 265.621 240.979 244.049C238.219 222.476 234.273 191.373 232.213 174.929C230.151 158.484 227.923 141.295 227.259 136.73C226.596 132.164 225.572 124.16 224.983 118.943C222.494 96.8419 216.795 53.2195 216.167 51.4423C215.097 48.4222 217.353 48.4565 233.035 51.6997ZM239.284 39.1773C244.718 39.3245 268.3 40.0711 291.689 40.8365C315.078 41.6007 342.626 42.443 352.907 42.7085C363.188 42.9728 387.15 43.6939 406.157 44.31C425.165 44.9262 451.508 45.7416 464.698 46.1232C496.863 47.051 575.02 49.4088 628.434 51.063C657.21 51.9533 675.661 52.5168 740.228 54.4741C754.87 54.9177 781.811 55.7531 800.097 56.3312C818.384 56.9082 844.73 57.7201 858.643 58.1362C872.556 58.5523 895.921 59.2536 910.565 59.6938C925.209 60.1341 948.578 60.8295 962.495 61.241C1041.92 63.5834 1061.84 64.3809 1061.9 65.2181C1061.95 66.0458 1028.66 110.658 1028.05 110.573C1027.92 110.554 1020.9 109.91 1012.46 109.141C1004.02 108.372 989.075 106.986 979.248 106.061C958.904 104.145 934.365 101.981 926.721 101.428C923.873 101.223 913.188 100.312 902.974 99.4056C892.761 98.4984 878.056 97.2082 870.296 96.5383C862.535 95.8684 836.601 93.5684 812.663 91.4279C705.114 81.8103 656.702 77.5182 648.728 76.8926C645.181 76.6155 634.505 75.6904 625.003 74.8373C615.499 73.9854 597.895 72.4639 585.882 71.4581C573.869 70.4522 559.613 69.1466 554.201 68.5572C548.789 67.9679 535.543 66.7789 524.765 65.914C485.741 62.7856 447.854 59.2991 447.079 58.767C446.644 58.4676 445.147 58.9469 443.753 59.8329C442.359 60.7177 440.846 60.789 440.389 59.9921C439.934 59.1939 433.573 58.0074 426.257 57.354C418.941 56.7024 402.303 55.2075 389.285 54.0321C376.268 52.8556 356.079 51.0913 344.422 50.1103C332.767 49.1281 312.577 47.365 299.56 46.1896C286.541 45.0154 266.388 43.1988 254.776 42.154C243.163 41.108 232.592 40.2664 231.284 40.2812C228.761 40.3109 227.054 39.6283 228.527 39.1785C229.009 39.0302 233.85 39.0307 239.284 39.1773ZM318.164 53.7182C337.174 55.4173 363.975 57.7919 377.722 58.9936C391.47 60.1943 410.878 61.9396 420.85 62.8698C430.824 63.8007 439.085 63.877 439.207 63.0406C439.329 62.2043 439.627 62.1426 439.87 62.9039C440.35 64.4138 449.105 65.4836 489.11 68.9261C514.068 71.0738 558.528 74.9583 599.347 78.5571C609.564 79.4574 620.809 80.4441 624.336 80.749C635.029 81.6719 677.89 85.4357 705.068 87.8377C744.72 91.3413 779.386 94.3727 809.233 96.947C824.239 98.2417 836.695 99.4237 836.915 99.5747C837.134 99.7257 845.032 100.451 854.466 101.187C871.109 102.485 962.862 110.552 1002.73 114.222C1013.56 115.218 1022.44 116.346 1022.46 116.726C1022.51 117.446 995.865 150.636 992.244 154.363C990.11 156.56 988.407 156.357 901.829 143.577C885.546 141.173 869.445 138.799 866.05 138.302C862.656 137.803 852.113 136.24 842.621 134.828C833.129 133.415 820.088 131.483 813.64 130.535C807.193 129.586 793.597 127.571 783.427 126.057C773.258 124.543 754.086 121.744 740.824 119.837C727.561 117.931 704.809 114.559 690.263 112.344C665.098 108.513 656.084 107.183 617.472 101.611C608.294 100.285 596.914 98.6039 592.186 97.8726C583.083 96.466 571.602 94.7658 548.405 91.3893C540.591 90.2527 527.543 88.3307 519.408 87.1195C511.272 85.9082 499.889 84.2325 494.111 83.3967C480.454 81.4198 439.534 75.3953 432.415 74.3123C408.311 70.6475 313.227 56.6487 291.13 53.5124C260.063 49.1026 267.163 49.1579 318.164 53.7182ZM304.257 71.9799C310.585 74.1859 316.498 76.1048 317.398 76.2438C318.381 76.3951 318.902 81.719 318.702 89.5737C318.519 96.7672 318.164 113.268 317.913 126.245C317.661 139.221 317.117 165.359 316.705 184.33C316.292 203.301 315.761 229.448 315.526 242.435C314.51 298.494 312.801 382.273 312.556 388.086C312.409 391.563 311.968 411.747 311.575 432.941C309.988 518.734 308.211 603.949 307.861 611.15L307.7 614.455L307.399 610.833C307.051 606.62 306.48 588.241 305.941 563.781C305.731 554.3 305.046 530.386 304.419 510.639C303.791 490.893 303.222 470.871 303.154 466.145C303.086 461.421 302.767 448.92 302.444 438.366C302.121 427.813 301.55 408.209 301.177 394.803C300.802 381.397 300.371 366.5 300.219 361.699C300.067 356.899 299.636 340.091 299.262 324.35C298.586 295.893 296.509 222.56 295.341 185.87C295.005 175.307 294.556 158.093 294.344 147.616C294.131 137.138 293.774 123.829 293.55 118.04C292.581 92.9839 292.009 69.1004 292.367 68.5569C292.578 68.2329 297.929 69.7738 304.257 71.9799ZM336.581 84.5118C342.862 87.1584 347.725 89.8535 347.651 90.6465C347.579 91.4253 346.491 107.852 345.234 127.148C342.729 165.563 338.912 222.546 335.776 268.307C334.669 284.452 331.652 329.638 329.069 368.72C326.487 407.802 323.34 455.204 322.075 474.058C320.81 492.913 318.716 524.497 317.424 544.244C314.068 595.474 313.557 594.093 314.9 537.435C316.402 474.104 316.836 453.366 316.68 452.42C316.593 451.891 316.65 447.319 316.808 442.262C316.966 437.204 317.214 427.001 317.361 419.588C318.663 353.451 319.306 321.285 319.783 298.3C320.092 283.484 320.626 257.3 320.97 240.114C321.314 222.927 321.903 194.182 322.28 176.236C322.656 158.29 323.065 136.788 323.188 128.455C323.589 101.16 324.266 81.4149 324.828 80.5972C325.132 80.1554 330.421 81.9173 336.581 84.5118ZM353.648 68.8143C361.969 70.0285 377.936 72.3734 389.13 74.0272C400.325 75.6797 417.263 78.1708 426.769 79.5624C436.275 80.9541 449.05 82.8285 455.158 83.7274C461.267 84.6251 469.609 85.833 473.696 86.4114C477.782 86.9897 486.106 88.223 492.194 89.152C498.28 90.0822 519.088 93.1701 538.432 96.0143C557.776 98.8595 582.208 102.455 592.726 104.006C603.244 105.557 618.79 107.848 627.273 109.098C635.755 110.348 652.121 112.781 663.641 114.505C675.161 116.228 687.945 118.09 692.05 118.642C702.178 120.002 763.876 129.186 795.593 134.057C809.789 136.237 822.771 137.512 824.442 136.891C826.112 136.27 827.247 136.412 826.965 137.204C826.655 138.072 830.141 139.157 835.735 139.934C840.841 140.644 853.068 142.413 862.906 143.865C872.743 145.319 882.501 146.69 884.59 146.913C886.678 147.136 897.215 148.709 908.005 150.408C918.795 152.107 938.458 155.08 951.702 157.014C964.945 158.948 977.812 160.889 980.294 161.328L984.805 162.124L980.536 167.212C971.269 178.259 954.524 196.432 953.26 196.815C952.525 197.039 939.656 194.607 924.664 191.411C855.336 176.638 782.098 161.233 779.829 160.947C778.454 160.774 760.546 157.025 740.036 152.616C719.524 148.208 676.316 139.014 644.016 132.185C515.337 104.978 340.751 68.1645 339.307 67.9322C338.466 67.798 337.944 67.4444 338.148 67.1475C338.352 66.8505 345.327 67.6002 353.648 68.8143ZM377.553 82.1157C387.993 84.2465 414.847 89.9022 437.228 94.6834C464.002 100.403 479.145 102.986 481.493 102.237C483.457 101.609 484.322 101.546 483.416 102.098C482.481 102.667 482.265 103.442 482.918 103.89C483.55 104.325 543.115 117.13 615.285 132.347C687.455 147.563 770.266 165.026 799.312 171.153C828.357 177.279 873.616 186.821 899.888 192.357C926.16 197.892 947.681 202.791 947.712 203.241C947.775 204.14 924.6 228.554 920.788 231.605C918.135 233.727 918.39 233.781 879.351 222.744C865.272 218.763 848.557 214.169 842.206 212.535C835.856 210.901 825.558 208.092 819.32 206.294C813.082 204.497 802.832 201.617 796.541 199.896C790.251 198.174 773.545 193.568 759.416 189.66C745.286 185.752 729.347 181.365 723.994 179.911C718.641 178.456 707.349 175.314 698.899 172.929C690.45 170.543 681.167 168.035 678.272 167.355C675.376 166.675 668.164 164.713 662.244 162.997C656.324 161.28 646.077 158.396 639.473 156.588C632.87 154.778 619.512 151.083 609.791 148.373C600.068 145.665 587.947 142.394 582.855 141.104C577.763 139.814 571.6 138.105 569.159 137.307C566.718 136.509 552.345 132.512 537.218 128.425C522.091 124.337 503.562 119.269 496.043 117.162C461.967 107.615 446.341 103.32 437.752 101.145C432.66 99.8551 426.499 98.1431 424.061 97.3415C421.623 96.54 410.078 93.3202 398.405 90.1871C386.733 87.0539 373.559 83.4421 369.129 82.1627C364.699 80.882 360.042 79.6505 358.781 79.4257C357.519 79.2009 356.956 78.8426 357.529 78.6288C358.103 78.415 367.114 79.9838 377.553 82.1157ZM363.372 96.926C371.486 100.798 373.239 102.041 373.321 103.98C373.375 105.274 369.372 141.974 364.424 185.535C359.476 229.095 349.446 317.491 342.135 381.969C322.163 558.127 323.207 549.227 322.948 545.528C322.845 544.048 324.131 522.647 325.807 497.969C327.481 473.291 329.794 438.441 330.945 420.521C332.096 402.602 333.403 383.406 333.85 377.863C334.296 372.321 334.78 365.292 334.924 362.243C335.069 359.195 336.31 340.567 337.684 320.848C340.664 278.043 345.674 202.627 349.726 139.572C351.345 114.386 352.861 93.4297 353.097 93.0023C353.33 92.5754 357.955 94.3417 363.372 96.926ZM381.68 107.109C383.085 107.51 387.175 109.846 390.767 112.303C397.205 116.704 397.283 116.836 396.258 121.603C395.05 127.211 395.505 124.489 387.493 174.067C384.078 195.201 380.958 214.957 380.561 217.972C380.162 220.985 379.152 227.591 378.316 232.652C377.478 237.711 373.612 261.566 369.725 285.662C365.837 309.758 360.53 342.612 357.93 358.671C355.33 374.73 352.165 394.455 350.895 402.505C347.384 424.768 335.597 497.927 334.546 503.976C331.997 518.649 334.557 494.547 349.168 366.31C357.901 289.661 368.011 200.168 371.634 167.436C375.257 134.706 378.425 107.579 378.672 107.154C378.92 106.729 380.273 106.71 381.68 107.109ZM403.586 97.9709C407.241 98.9066 414.576 100.91 419.887 102.426C425.198 103.941 434.685 106.597 440.968 108.328C447.252 110.06 455.726 112.409 459.8 113.549C463.874 114.689 475.953 118.021 486.642 120.954C497.332 123.885 509.411 127.217 513.485 128.359C517.559 129.499 534.279 134.085 550.64 138.55C567.003 143.015 582.945 147.399 586.069 148.29C589.192 149.183 599.99 152.155 610.065 154.894C620.14 157.632 640.958 163.373 656.327 167.652C671.696 171.931 688.417 176.515 693.486 177.839C698.554 179.164 708.604 181.89 715.818 183.899C723.031 185.908 743.06 191.463 760.325 196.245C777.59 201.028 795.549 206.035 800.234 207.373C804.92 208.711 817.539 212.147 828.276 215.01C839.014 217.871 853.154 221.764 859.697 223.661C866.241 225.556 876.523 228.39 882.546 229.956C904.33 235.624 912.38 238.056 912.445 238.987C912.502 239.789 887.854 264.289 886.501 264.776C885.791 265.032 874.532 261.364 857.055 255.184C848.337 252.102 837.212 248.271 832.332 246.671C817.745 241.888 787.618 231.584 780.076 228.796C773.276 226.282 682.731 195.111 663.602 188.699C658.439 186.969 647.534 183.264 639.368 180.465C608.085 169.747 593.233 164.666 579.411 159.953C571.541 157.269 556.968 152.228 547.026 148.751C537.085 145.274 524.717 141.028 519.542 139.315C514.368 137.601 503.458 133.901 495.301 131.091C417.108 104.151 399.985 98.2962 398.206 97.8915C397.076 97.6339 396.328 97.1642 396.545 96.8476C396.763 96.5309 399.931 97.0363 403.586 97.9709ZM410.037 124.171L416.957 129.425L413.338 146.576C403.24 194.439 400.302 208.634 400.192 210.118C400.125 211.011 397.769 222.456 394.957 235.551C392.145 248.646 389.487 261.42 389.051 263.938C388.615 266.456 386.564 276.573 384.493 286.42C382.421 296.267 379.76 309.039 378.578 314.801C377.396 320.563 375.256 331.004 373.823 338.002C372.389 345 368.7 362.828 365.624 377.621C362.548 392.413 359.073 409.236 357.901 415.005C356.729 420.774 354.517 431.549 352.985 438.949C351.453 446.349 348.998 458.301 347.529 465.511C346.062 472.72 344.667 478.486 344.431 478.324C344.077 478.08 351.109 432.174 353.07 421.931C353.387 420.27 357.077 397.447 361.268 371.211C373.538 294.416 390.547 188.68 395.034 161.319C397.317 147.391 399.612 132.831 400.133 128.962C401.563 118.338 402.047 118.104 410.037 124.171ZM463.787 126.53C477.701 131.294 492.505 136.444 496.687 137.972C500.868 139.5 508.527 142.146 513.706 143.853C518.886 145.558 537.937 152.091 556.043 158.368C574.148 164.646 594.185 171.523 600.57 173.652C606.954 175.779 620.322 180.35 630.275 183.81C640.228 187.27 653.587 191.854 659.961 193.997C666.335 196.141 677.225 199.867 684.162 202.28C691.098 204.692 704.732 209.32 714.459 212.565C732.012 218.419 746.833 223.578 757.221 227.451C760.195 228.561 767.86 231.198 774.253 233.313C788.162 237.914 812.156 246.073 828.772 251.852C838.273 255.157 864.146 264.067 877.94 268.785C878.998 269.147 879.435 270.069 878.911 270.831C877.553 272.807 856.606 291.326 855.221 291.776C854.166 292.118 846.371 289.061 818.661 277.437C813.15 275.126 803.136 271.013 796.407 268.299C789.678 265.584 781.571 262.256 778.391 260.902C767.763 256.376 740.038 244.843 725.027 238.707C703.85 230.046 672.059 216.834 665.313 213.888C662.151 212.508 649.783 207.373 637.826 202.478C616.65 193.807 581.812 179.39 499.77 145.347C477.673 136.178 455.259 126.977 449.96 124.9C436.166 119.493 430.066 116.846 427.981 115.362C425.617 113.679 432.854 115.936 463.787 126.53ZM434.097 143.38C434.158 144.237 429.217 164.51 423.117 188.428C412.757 229.056 382.444 349.4 376.394 373.923C368.201 407.133 355.939 454.404 355.483 454.544C355.192 454.633 356.883 445.489 359.24 434.226C361.596 422.963 364.759 407.679 366.267 400.262C367.774 392.845 370.975 377.37 373.377 365.872C375.78 354.375 378.184 342.603 378.721 339.714C379.258 336.825 381.477 326.054 383.653 315.781C385.829 305.506 389.456 287.995 391.712 276.867C393.97 265.739 397.797 247.237 400.219 235.752C402.641 224.267 405.232 211.831 405.978 208.118C409.512 190.536 413.79 169.751 417.372 152.764L421.304 134.12L427.646 137.969C431.134 140.084 434.037 142.52 434.097 143.38ZM444.433 151.212C449.075 154.872 449.404 155.565 448.425 159.591C447.247 164.429 440.263 188.139 425.415 237.699C420.048 255.613 413.099 278.886 409.973 289.417C406.848 299.949 401.156 319.09 397.325 331.955C393.496 344.82 386.204 369.395 381.122 386.565C366.743 435.16 366.934 432.025 381.968 372.631C385.917 357.03 394.256 323.954 400.499 299.129C406.742 274.304 415.17 240.904 419.226 224.908C423.283 208.911 429.211 185.321 432.398 172.484C435.585 159.647 438.459 148.712 438.784 148.184C439.108 147.655 441.651 149.018 444.433 151.212ZM470.265 139.84C473.988 141.491 488.248 147.432 501.954 153.044C534.471 166.357 607.769 196.708 615.133 199.911C618.297 201.287 633.777 207.679 649.531 214.116C665.285 220.552 682.199 227.565 687.115 229.701C692.034 231.837 701.78 235.855 708.775 238.628C715.771 241.402 725.517 245.42 730.435 247.555C735.352 249.691 752.017 256.623 767.466 262.958C814.157 282.108 846.064 295.417 847.277 296.25C848.051 296.782 844.853 300.001 837.445 306.143C831.406 311.149 825.939 315.402 825.298 315.593C824.656 315.784 815.9 311.9 805.842 306.962C795.783 302.024 776.112 292.391 762.127 285.555C748.143 278.718 724.809 267.295 710.274 260.171C695.74 253.047 678.351 244.541 671.634 241.266C659.241 235.226 650.297 230.843 611.157 211.627C584.843 198.709 546.885 180.081 511.073 162.511C496.542 155.383 477.262 145.991 468.229 141.643C459.196 137.296 451.261 133.272 450.595 132.703C449.102 131.426 461.112 135.783 470.265 139.84ZM458.252 164.733C460.365 166.822 462.163 169.122 462.246 169.845C462.329 170.566 458.663 181.981 454.099 195.211C444.322 223.554 409.851 323.83 393.449 371.647C387.112 390.118 381.626 405.323 381.258 405.436C380.89 405.548 384.541 392.456 389.374 376.343C394.206 360.228 400.624 338.748 403.638 328.609C406.651 318.47 414.644 291.688 421.4 269.094C428.155 246.499 437.901 213.621 443.056 196.032C448.21 178.442 452.873 163.348 453.418 162.492C454.171 161.307 455.332 161.846 458.252 164.733ZM546.087 186.694C561.178 194.095 580.858 203.716 589.819 208.076C598.78 212.435 620.05 222.856 637.087 231.233C654.123 239.61 675.848 250.259 685.366 254.896C708.704 266.268 745.325 284.217 750.923 287.028C753.424 288.284 758.296 290.536 761.752 292.032C765.208 293.527 769.595 295.819 771.501 297.122C773.409 298.425 775.265 299.06 775.628 298.532C775.99 298.004 777.297 298.549 778.533 299.742C779.768 300.936 789.406 306.041 799.948 311.089C810.491 316.138 818.866 320.633 818.558 321.081C818.251 321.528 813.317 325.223 807.595 329.289L797.191 336.683L791.823 333.95C788.87 332.446 775.731 325.023 762.625 317.451C723.938 295.104 694.83 278.447 681.194 270.851C674.168 266.938 660.781 259.281 651.445 253.836C642.109 248.391 618.855 235.074 599.768 224.244C580.681 213.414 557.182 200.008 547.548 194.452C537.914 188.897 518.547 177.93 504.51 170.083C490.473 162.235 477.781 154.902 476.305 153.787C473.403 151.596 502.333 165.238 546.087 186.694ZM483.374 192.114C510.435 222.351 520.665 233.753 532.929 247.355C539.715 254.879 550.629 267.024 557.184 274.341C563.737 281.66 576.777 296.049 586.161 306.317C595.545 316.586 605.619 327.728 608.549 331.077C617.366 341.159 657.918 386.214 667.489 396.563C670.275 399.576 672.633 402.675 672.729 403.451C672.824 404.226 667.226 406.998 660.286 409.611C647.734 414.337 633.277 419.891 566.474 445.648C547.214 453.074 529.28 459.959 526.619 460.948C523.958 461.937 510.323 467.166 496.318 472.569C474.256 481.079 443.608 492.849 376.901 518.424C368.053 521.815 360.174 525.497 359.391 526.602C358.609 527.707 357.465 528.267 356.853 527.845C356.24 527.424 352.835 527.929 349.287 528.969C345.738 530.008 343.317 530.158 343.905 529.302C344.77 528.044 390.087 397.547 404.977 353.437C407.035 347.338 412.293 332.124 416.66 319.628C421.026 307.132 426.281 291.916 428.337 285.815C435.411 264.825 462.067 187.713 465.065 179.566C466.152 176.615 466.938 175.593 467.897 175.891C468.627 176.118 475.591 183.418 483.374 192.114ZM514.186 182.694C535.281 194.646 611.003 237.857 633.502 250.782C638.726 253.782 643.339 255.746 643.752 255.145C644.173 254.531 644.805 254.868 645.193 255.914C645.828 257.62 650.538 260.551 674.273 274.001C678.845 276.592 689.596 282.746 698.164 287.677C706.733 292.608 719.698 299.988 726.977 304.076C765.388 325.651 789.502 339.752 789.566 340.672C789.64 341.708 771.374 354.653 769.793 354.686C769.331 354.696 738.395 334.22 701.046 309.185C663.698 284.149 631.748 263.022 630.046 262.236C628.343 261.451 601.832 243.976 571.131 223.405C540.429 202.833 509.491 182.458 502.379 178.126C495.267 173.795 489.843 170.12 490.326 169.962C490.809 169.804 501.545 175.533 514.186 182.694ZM523.19 199.25C529.796 203.23 559.06 222.482 588.221 242.033C646.933 281.395 689.6 309.65 734.738 339.064L764.685 358.577L755.687 364.144C750.739 367.205 746.488 369.798 746.242 369.905C745.756 370.116 694.721 332.057 678.889 319.676C667.31 310.622 588.528 250.908 542.884 216.592C525.03 203.169 510.593 192.148 510.801 192.1C511.009 192.052 516.583 195.27 523.19 199.25ZM521.68 207.377C522.187 207.726 522.223 208.565 521.759 209.24C521.295 209.915 520.721 209.86 520.484 209.117C520.248 208.374 520.212 207.536 520.406 207.255C520.599 206.973 521.172 207.028 521.68 207.377ZM542.957 224.362C552.44 231.495 563.55 240.019 567.645 243.303C571.74 246.588 588.647 259.354 605.216 271.673C621.785 283.993 639.726 297.478 645.085 301.643C661.305 314.249 697.47 341.701 716.073 355.528C725.719 362.697 734.774 369.742 736.196 371.184L738.779 373.805L730.592 378.354C726.088 380.856 722.003 382.594 721.512 382.218C721.021 381.842 711.277 373.33 699.858 363.305C688.44 353.278 678.43 345.242 677.614 345.447C676.799 345.65 675.743 344.834 675.268 343.631C674.255 341.068 674.073 340.904 636.146 308.223C620.071 294.371 593.968 271.853 578.141 258.181C562.315 244.51 543.875 228.635 537.165 222.904C530.456 217.173 525.133 212.239 525.339 211.938C525.545 211.639 533.473 217.23 542.957 224.362ZM544.655 237.52C559.793 250.632 595.628 281.549 647.734 326.454C693.768 366.124 715.376 385.043 715.423 385.718C715.447 386.058 712.083 387.97 707.948 389.963C701.486 393.08 700.149 393.272 698.427 391.326C697.325 390.08 692.013 384.802 686.623 379.595C674.896 368.267 653.785 347.666 630.505 324.833C621.13 315.639 605.227 300.077 595.163 290.254C585.099 280.431 569.576 265.206 560.666 256.423C551.756 247.641 540.879 237.008 536.495 232.796C532.11 228.585 528.829 225.045 529.202 224.931C529.575 224.817 536.53 230.482 544.655 237.52ZM346.774 495.844C347.255 496.72 346.847 496.844 345.734 496.161C344.727 495.543 344.371 494.895 344.942 494.72C345.513 494.546 346.338 495.051 346.774 495.844ZM358.307 531.381C367.074 528.028 381.391 522.511 390.122 519.119C398.853 515.728 406.43 512.866 406.961 512.761C407.491 512.656 426.134 505.49 448.391 496.836C470.648 488.183 493.557 479.338 499.301 477.18C505.044 475.022 520.692 469.064 534.074 463.937C547.456 458.811 558.666 454.797 558.988 455.018C559.309 455.239 557.929 456.02 555.922 456.753C551.194 458.481 486.711 486.743 477.484 491.131C473.598 492.979 459.64 499.158 446.467 504.86C433.293 510.564 417.57 517.427 411.526 520.112C405.483 522.796 388.754 530.129 374.352 536.404C359.95 542.681 345.954 548.912 343.251 550.252C340.547 551.592 338.032 552.479 337.662 552.225C336.89 551.695 339.573 542.017 341.246 539.294C341.861 538.294 349.538 534.732 358.307 531.381ZM562.523 266.882C569.713 274.193 578.945 283.307 583.039 287.135C587.133 290.965 596.48 300.052 603.809 307.329C618.635 322.049 640.696 343.605 659.9 362.132C666.865 368.852 674.722 376.549 677.359 379.236C679.996 381.924 684.01 385.869 686.277 388.007C688.546 390.143 691.141 392.81 692.045 393.933L693.688 395.976L689.757 397.788C679.309 402.603 681.329 403.324 670.452 390.904C665.084 384.777 651.667 369.761 640.637 357.539C629.608 345.315 608.788 322.228 594.371 306.234C579.956 290.238 562.945 271.395 556.57 264.36C541.723 247.974 545.502 249.575 562.523 266.882ZM384.372 537.898C411.292 526.053 438.791 513.975 445.48 511.058C452.169 508.142 473.99 498.548 493.969 489.739C513.948 480.928 531.346 473.291 532.63 472.764C533.914 472.238 546.684 466.605 561.006 460.248C575.329 453.89 587.246 448.824 587.488 448.99C588.123 449.427 585.792 450.72 575.111 455.853C569.884 458.366 554.582 465.908 541.107 472.613C527.632 479.319 506.631 489.703 494.435 495.688C474.19 505.625 451.14 516.13 471.107 511.029L462.412 516.807L475.704 511.067C479.465 509.106 486.145 505.75 490.549 503.611C494.953 501.472 519.949 489.066 546.097 476.043C572.245 463.019 596.117 451.197 599.148 449.771C608.752 445.253 605.187 448.197 593.375 454.538C578.343 462.608 568.044 468.274 549.049 478.926C540.395 483.779 519.664 495.274 502.98 504.47C486.296 513.667 466.62 524.557 459.255 528.67C445.79 536.19 385.889 569.362 347.537 590.538C336.2 596.798 326.461 601.823 325.895 601.704C324.704 601.454 327.059 587.423 328.69 585.05C329.884 583.311 338.017 579.14 396.033 550.505C403.987 546.579 415.032 541.106 420.577 538.343C426.123 535.58 437.179 530.115 445.145 526.197C464.46 516.702 463.69 517.209 463.946 513.8C464.155 511.033 463.988 510.965 460.773 512.496C458.907 513.386 444.072 520.721 427.807 528.797C411.543 536.872 395.309 544.927 391.734 546.696C388.158 548.465 373.347 555.811 358.82 563.02C344.292 570.228 331.943 576.268 331.376 576.442C330.478 576.716 333.599 562.51 334.929 560.27C335.202 559.81 357.451 549.743 384.372 537.898ZM369.524 584.453C394.559 570.59 422.975 554.822 432.672 549.413C454.734 537.105 475.964 525.335 494.837 514.946C502.87 510.524 512.168 505.387 515.496 503.53C530.387 495.224 608.055 452.192 619.499 445.907C626.479 442.074 632.206 439.17 632.225 439.454C632.26 439.949 625.877 443.921 587.772 467.116C578.35 472.851 567.415 479.552 563.473 482.008C559.531 484.464 544.186 493.898 529.376 502.974C514.565 512.048 499.796 521.109 496.557 523.11C493.317 525.109 477.953 534.53 462.415 544.044C426.191 566.223 379.49 594.913 346.665 615.152C332.456 623.914 320.53 630.893 320.161 630.663C319.333 630.145 321.929 613.051 323.133 611.083C323.613 610.298 344.489 598.315 369.524 584.453ZM323.191 635.302C324.752 634.522 331.333 630.612 337.815 626.615C344.297 622.617 351.991 617.915 354.913 616.166C357.835 614.417 367.876 608.254 377.227 602.471C406.256 584.518 528.32 509.618 549.847 496.551C561.095 489.723 576.158 480.481 583.322 476.012C590.486 471.543 598.727 466.449 601.634 464.69C604.542 462.932 616.951 455.322 629.209 447.781C653.228 433.004 660.15 429.385 646.144 438.928C618.025 458.086 578.027 485.225 537.365 512.733C511.884 529.972 476.978 553.626 459.797 565.298C319.595 660.543 318.529 661.257 316.836 661.131C315.58 661.038 317.681 640.873 319.189 638.528C319.83 637.533 321.631 636.081 323.191 635.302ZM331.291 658.619C339.823 652.867 361.427 638.232 379.299 626.095C417.984 599.825 476.728 560.015 536.934 519.268C561.033 502.958 592.822 481.388 607.576 471.335C644.896 445.907 687.063 417.695 688.154 417.424C689.391 417.118 688.492 417.805 665.798 434.505C654.908 442.518 642.535 451.689 638.301 454.883C634.068 458.079 617.156 470.662 600.72 482.846C566.398 508.287 557.75 514.705 540.389 527.619C533.499 532.746 511.977 548.692 492.564 563.057C461.703 585.892 453.273 592.145 435.801 605.16C433.835 606.626 429.783 609.605 426.8 611.781C423.815 613.956 417.915 618.354 413.686 621.553C388.225 640.814 315.109 694.921 313.97 695.346C312.526 695.883 313.385 672.658 314.893 670.403C315.38 669.673 322.759 664.371 331.291 658.619ZM331.218 689.312C341.307 681.809 352.476 673.449 356.04 670.733C359.603 668.016 375.195 656.447 390.688 645.023C418.84 624.263 486.192 574.319 503.033 561.714C507.939 558.041 532.927 539.483 558.562 520.471C584.197 501.46 609.191 482.905 614.105 479.238C623.625 472.131 651.468 451.501 667.311 439.814C672.584 435.924 678.479 431.523 680.412 430.034C682.345 428.544 686.368 425.546 689.35 423.369C692.334 421.193 698.378 416.693 702.781 413.368C713.82 405.037 713.025 407.367 701.851 416.098C696.87 419.99 676.664 436.295 656.95 452.332C637.236 468.368 616.984 484.803 611.945 488.853C606.904 492.903 598.915 499.323 594.191 503.121C589.467 506.918 580.505 514.206 574.275 519.317C558.007 532.665 518.916 564.328 502.422 577.517C499.263 580.043 484.659 591.906 469.968 603.881C442.308 626.429 431.379 635.258 418.577 645.407C414.005 649.032 411.112 652.009 411.165 653.034C411.304 655.726 409.532 657.51 407.352 656.872C405.895 656.446 398.301 662.006 379.844 677.015C365.822 688.417 350.468 700.843 345.724 704.627C340.98 708.41 332.006 715.669 325.782 720.756C319.557 725.843 313.665 730.496 312.688 731.095C311.428 731.866 311.014 728.197 311.264 718.485C311.459 710.951 311.901 704.375 312.247 703.87C312.594 703.365 321.131 696.814 331.218 689.312ZM324.591 728.252C332.024 722.24 351.443 706.509 367.746 693.293C384.048 680.078 406.121 662.204 416.797 653.575C427.474 644.947 445.43 630.391 456.698 621.23C467.966 612.068 490.029 594.188 505.727 581.496C544.007 550.544 571.758 528.021 585.476 516.769C591.707 511.659 599.37 505.488 602.504 503.057C605.64 500.626 608.803 497.765 609.533 496.703C610.264 495.639 611.575 494.529 612.447 494.236C613.318 493.942 626.072 483.92 640.79 471.963C655.508 460.007 670.654 447.747 674.445 444.717C678.238 441.688 697.623 426.007 717.525 409.869C737.427 393.731 753.73 380.825 753.755 381.189C753.781 381.552 699.266 429.955 632.611 488.752C565.955 547.549 471.038 631.299 421.684 674.865C312.988 770.812 313.661 770.227 312.356 769.819C311.58 769.575 310.243 740.497 310.956 739.373C311.022 739.268 317.158 734.264 324.591 728.252ZM300.952 788.271C301.143 788.402 301.242 789.816 301.172 791.41C301.055 794.038 300.995 794.057 300.522 791.609C300.026 789.036 300.193 787.749 300.952 788.271ZM346.806 747.617C364.915 731.663 388.063 711.27 398.246 702.302C408.427 693.332 471.344 637.828 538.061 578.958C604.777 520.087 673.323 459.614 690.384 444.572C707.446 429.53 728.986 410.522 738.252 402.333C781.46 364.141 788.166 358.293 788.199 358.767C788.234 359.261 786.045 361.404 760.922 385.468C754.356 391.756 742.452 403.17 734.468 410.832C706.883 437.303 680.024 463.009 658.658 483.39C650.645 491.032 641.585 499.79 638.523 502.851C631.542 509.831 586.04 553.483 578.891 560.059C575.969 562.747 551.185 586.441 523.816 612.714C496.447 638.986 467.522 666.751 459.54 674.413C451.557 682.076 440.583 692.592 435.152 697.783C424.593 707.878 413.18 718.821 384.321 746.523C374.342 756.102 361.725 768.178 356.283 773.361C350.841 778.544 339.668 789.307 331.455 797.281C323.241 805.254 315.991 811.976 315.342 812.218C313.773 812.804 311.291 780.388 312.743 778.275C313.368 777.367 328.695 763.572 346.806 747.617ZM340.21 795.785C353.419 783.167 371.445 765.894 380.267 757.398C404.705 733.868 421.785 717.478 437.818 702.176C445.828 694.533 461.927 679.085 473.594 667.849C498.124 644.225 511.739 631.188 553.534 591.3C558.968 586.112 570.401 575.142 578.938 566.922C602.389 544.339 619.153 528.267 669.197 480.387C694.334 456.338 716.583 434.359 718.638 431.545C720.693 428.731 723.244 426.257 724.305 426.047C725.368 425.838 730.898 421.186 736.596 415.71C756.161 396.904 779.127 374.904 790.57 364.006C796.871 358.005 805.223 349.914 809.131 346.025C813.039 342.136 815.989 339.648 815.687 340.496C815.22 341.805 808.303 349.192 775.917 382.966C773.746 385.231 763.269 396.089 752.635 407.095C742.001 418.102 729.107 431.525 723.98 436.924C718.853 442.323 704.863 456.914 692.889 469.347C680.916 481.782 668.022 495.205 664.236 499.177C660.45 503.15 648.656 515.408 638.027 526.418C627.399 537.428 615.606 549.687 611.822 553.661C608.038 557.635 596.244 569.893 585.614 580.902C574.983 591.911 562.096 605.339 556.977 610.743C551.858 616.147 538.967 629.573 528.331 640.578C517.695 651.583 504.799 665.005 499.673 670.404C494.546 675.803 481.653 689.228 471.023 700.237C460.392 711.245 447.494 724.665 442.361 730.06C437.227 735.454 424.331 748.877 413.704 759.887C403.075 770.897 392.223 782.266 389.588 785.151C386.952 788.036 379.626 795.68 373.307 802.138C358.784 816.983 334.999 841.702 327.045 850.218C323.693 853.807 320.489 856.771 319.927 856.803C318.588 856.882 314.177 821.661 315.319 820C315.8 819.299 327.001 808.403 340.21 795.785ZM677.183 295.469C677.69 295.817 677.747 296.625 677.309 297.263C676.87 297.901 676.096 298.137 675.589 297.788C675.081 297.439 675.025 296.632 675.463 295.994C675.901 295.356 676.675 295.12 677.183 295.469ZM341.39 842.532C350.642 832.925 363.506 819.48 369.975 812.656C376.444 805.831 389.333 792.404 398.616 782.818C407.901 773.232 419.687 760.968 424.81 755.567C429.932 750.164 442.831 736.744 453.475 725.745C464.118 714.745 475.913 702.487 479.686 698.506C483.459 694.524 496.352 681.1 508.337 668.675C520.323 656.249 533.218 642.827 536.995 638.848C540.771 634.869 552.551 622.601 563.172 611.585C573.793 600.57 590.243 583.443 599.727 573.525C620.486 551.815 624.343 547.799 649.129 522.095C659.75 511.079 677.176 492.894 687.853 481.684C698.528 470.472 711.021 457.541 715.612 452.947C720.204 448.353 727.643 440.594 732.145 435.705C736.647 430.815 751.032 415.728 764.114 402.177C809.981 354.663 816.724 347.671 827.99 335.933C834.238 329.425 843.287 319.951 848.102 314.879C864.948 297.136 855.548 308.924 827.79 340.353C796.513 375.765 794.4 378.169 790.518 382.755C789.009 384.536 783.814 390.325 778.974 395.62C774.132 400.915 767.343 408.544 763.886 412.574C760.428 416.602 746.391 432.56 732.692 448.034C718.993 463.509 703.583 480.966 698.447 486.829C693.311 492.691 680.855 506.8 670.767 518.181C660.679 529.563 645.676 546.532 637.426 555.889C620.83 574.717 595.423 603.495 567.521 635.067C557.452 646.461 547.16 658.215 544.65 661.186C542.142 664.158 539.008 667.768 537.685 669.207C528.589 679.117 490.97 721.61 441.344 778.031C422.294 799.689 401.484 823.237 395.101 830.36C388.718 837.483 382.859 844.791 382.083 846.602C381.287 848.458 380.272 849.617 379.754 849.261C379.249 848.914 376.86 850.922 374.445 853.724C367.941 861.269 332.901 900.962 330.293 903.739C328.048 906.13 328.042 906.125 326.751 899.68C326.038 896.131 325.056 890.609 324.567 887.409C324.079 884.208 322.911 877.692 321.973 872.926C320.636 866.133 320.732 863.801 322.416 862.131C323.598 860.959 332.136 852.139 341.39 842.532ZM340.433 899.936C344.023 895.829 355.301 883.025 365.498 871.482C400.828 831.494 420.222 809.512 432.796 795.209C444.626 781.753 468.506 754.714 503.655 714.98C511.923 705.635 528.594 686.738 540.703 672.989C552.812 659.239 570.751 638.909 580.568 627.811C590.385 616.713 605.585 599.495 614.346 589.55C623.108 579.605 638.308 562.387 648.124 551.288C657.939 540.189 674.421 521.546 684.748 509.86C695.075 498.173 708.604 482.882 714.813 475.879C723.235 466.378 725.981 462.739 725.631 461.541C725.288 460.37 725.601 459.893 726.789 459.774C729.058 459.547 731.385 457.302 742.035 445.064C751.44 434.256 773.451 409.25 794.948 384.946C801.408 377.645 815.138 362.107 825.46 350.417C835.783 338.727 852.26 320.081 862.076 308.983C871.892 297.884 884.981 283.058 891.161 276.034C907.363 257.627 903.082 264.289 882.598 289.364C872.893 301.241 852.937 325.756 838.252 343.839C823.565 361.922 802.09 388.275 790.527 402.4C778.966 416.526 764.948 433.787 759.376 440.759C753.806 447.732 743.991 459.813 737.566 467.608C731.141 475.402 721.323 487.481 715.748 494.45C710.172 501.419 696.156 518.682 684.601 532.812C673.045 546.942 651.379 573.548 636.453 591.936C598.087 639.201 560.892 684.935 531.33 721.193C517.343 738.347 499.506 760.285 491.693 769.942C483.879 779.6 476.061 789.211 474.32 791.302C472.577 793.392 468.956 797.819 466.27 801.139C448.591 823 404.645 877.016 386.964 898.617C375.402 912.742 360.807 930.76 354.53 938.655C348.253 946.551 342.279 953.68 341.255 954.498C339.745 955.703 338.779 953.319 336.15 941.92C334.367 934.185 332.006 924.462 330.901 920.315C329.179 913.844 329.25 912.39 331.401 910.088C332.779 908.612 336.844 904.044 340.433 899.936ZM715.103 404.366C715.905 404.319 715.74 404.891 714.716 405.706C712.722 407.293 711.807 407.206 712.954 405.539C713.366 404.938 714.334 404.41 715.103 404.366ZM355.133 945.901C360.491 939.252 378.706 916.806 395.611 896.021C432.448 850.728 466.352 808.965 479.7 792.438C485.066 785.795 491.07 778.395 493.044 775.994C505.017 761.431 567.926 684.134 584.846 663.197C590.214 656.555 601.855 642.271 610.716 631.454C619.576 620.638 639.033 596.74 653.952 578.348C668.872 559.955 686.881 537.841 693.973 529.204C702.573 518.73 706.826 512.902 706.742 511.705C706.658 510.509 707.369 509.68 708.875 509.22C710.171 508.825 714.395 504.371 718.791 498.763C723.003 493.392 733.903 479.904 743.015 468.791C752.126 457.677 765.544 441.156 772.832 432.077C780.121 422.998 795.742 403.764 807.545 389.334C828.587 363.609 854.951 331.224 908.276 265.598C949.074 215.388 951.815 212.203 938.296 230.73C921.8 253.338 897.246 286.31 852.778 345.566C752.294 479.465 756.111 474.223 756.783 477.408C757.372 480.192 757.106 480.38 754.5 479.032C753.227 478.374 747.157 486.278 693.871 557.968C682.55 573.199 670.949 588.663 668.089 592.333C665.229 596.003 651.145 614.756 636.791 634.006C622.438 653.258 608.033 672.547 604.781 676.872C600.066 683.144 598.973 685.236 599.381 687.195C599.847 689.436 599.747 689.558 598.251 688.579C597.063 687.801 595.956 688.458 594.234 690.963C592.928 692.864 578.034 712.789 561.136 735.242C544.239 757.694 525.698 782.427 519.934 790.206C514.171 797.985 491.406 828.447 469.346 857.899C447.287 887.351 412.724 933.526 392.541 960.511C372.358 987.495 355.602 1009.67 355.306 1009.79C355.01 1009.91 353.466 1005.39 351.873 999.751C350.28 994.107 348.731 989.015 348.431 988.436C348.129 987.859 346.333 981.79 344.438 974.952C341.536 964.488 341.339 962.16 343.191 960.255C344.402 959.009 349.776 952.55 355.133 945.901ZM759.232 375.768C761.779 374.397 760.52 376.228 757.239 378.667C755.664 379.837 755.242 379.837 755.997 378.667C756.626 377.691 758.082 376.387 759.232 375.768ZM819.984 336.016C820.026 336.612 819.371 337.636 818.53 338.289C817.599 339.012 817.57 338.587 818.454 337.205C819.254 335.955 819.943 335.42 819.984 336.016ZM398.647 960.438C420.013 931.918 438.383 907.273 439.47 905.673C440.558 904.073 463.739 873.128 490.983 836.908C518.228 800.688 563.295 740.6 591.134 703.38C618.974 666.16 656.203 616.439 673.865 592.887C691.527 569.336 714.305 538.883 724.481 525.214C741.313 502.605 794.605 431.455 814.409 405.152C824.705 391.477 835.592 376.874 858.602 345.872C868.759 332.19 879.908 317.374 883.381 312.951C888.909 305.906 889.452 304.869 887.745 304.606C886.674 304.44 886.195 303.728 886.68 303.022C887.166 302.316 888.186 302.166 888.947 302.69C889.766 303.252 891.067 302.576 892.131 301.036C893.121 299.604 896.618 295.089 899.901 291.006C905.154 284.472 905.681 283.452 904.298 282.502C903.433 281.907 903.35 281.07 904.114 280.641C904.879 280.212 905.662 280.355 905.855 280.959C906.242 282.176 914.416 271.87 932.126 247.836C952.702 219.912 989.546 171.315 990.319 171.08C990.73 170.954 852.558 372.396 683.268 618.729C416.292 1007.21 375.293 1066.49 374.144 1065.7C373.415 1065.2 371.855 1061.9 370.679 1058.38C369.502 1054.85 365.802 1044.16 362.454 1034.63C357.627 1020.87 356.723 1016.77 358.085 1014.79C359.029 1013.42 377.283 988.959 398.647 960.438ZM854.275 296.791C855.054 296.745 855.311 297.262 854.847 297.937C854.383 298.612 853.587 298.879 853.08 298.531C852.572 298.182 852.315 297.667 852.508 297.385C852.702 297.103 853.497 296.836 854.275 296.791ZM860.678 302.508C860.72 303.104 860.065 304.128 859.224 304.78C858.293 305.504 858.264 305.078 859.148 303.697C859.948 302.447 860.637 301.912 860.678 302.508ZM907.305 258.494C907.018 259.453 905.958 261.029 904.948 261.997C903.938 262.964 904.173 262.18 905.47 260.253C906.766 258.327 907.592 257.535 907.305 258.494Z" fill="white" fill-opacity="0.2"/>
<path fill-rule="evenodd" clip-rule="evenodd" d="M0.731755 32.4991C1.29581 34.2307 3.96045 41.7829 6.65226 49.2836C9.34482 56.7832 15.0888 72.8915 19.4178 85.078C23.7459 97.2657 33.9538 126.007 42.102 148.947C50.2502 171.887 57.8737 193.267 59.0441 196.457C60.2146 199.648 63.8273 209.96 67.073 219.373C70.3187 228.787 76.2412 245.525 80.2345 256.569C84.2278 267.613 90.4815 285.203 94.1306 295.661C97.7805 306.117 102.849 320.539 105.393 327.712C107.937 334.883 114.703 353.952 120.429 370.087C126.154 386.223 131.584 401.453 132.496 403.933C134.08 408.237 145.455 440.33 153.763 463.932C155.915 470.043 161.349 485.269 165.837 497.767C170.326 510.264 176.356 527.291 179.237 535.604C182.117 543.917 191.143 569.486 199.292 592.424C207.442 615.362 221.485 654.982 230.498 680.469C239.513 705.954 247.855 729.403 249.036 732.577C250.218 735.751 255.519 750.725 260.815 765.852C266.112 780.98 271.403 795.968 272.574 799.158C273.744 802.348 276.194 809.312 278.017 814.633C279.839 819.955 281.489 824.417 281.683 824.55C281.876 824.683 283.5 829.143 285.291 834.46C288.381 843.635 317.227 925.275 323.254 941.903C328.87 957.393 344.328 1001.05 349.527 1016.09C352.992 1026.12 355.94 1034.4 356.077 1034.5C356.365 1034.69 368.334 1068.74 370.452 1075.38L371.853 1079.77L742.609 540.318L1113.37 0.863758L1110.36 0.795638C1108.71 0.758531 1083.39 1.34837 1054.09 2.10691C1024.8 2.86545 998.661 3.52907 996.01 3.58049C993.358 3.63291 983.397 3.89107 973.875 4.15346C964.353 4.41582 954.396 4.66827 951.749 4.71386C946.496 4.8036 906.724 5.84901 849.348 7.40752C829.167 7.95537 802.728 8.61319 790.595 8.86896C763.312 9.44364 684.214 11.4711 662.654 12.1471C644.45 12.7185 557.855 14.9612 550.597 15.0496C547.959 15.0824 535.826 15.3876 523.634 15.7293C511.441 16.0709 487.164 16.6977 469.683 17.1223C430.49 18.0752 384.089 19.2636 349.35 20.2054C325.454 20.8539 261.238 22.5085 188.886 24.3437C147.064 25.4026 145.153 25.5351 144.882 27.3862C144.725 28.4519 144.272 28.444 143.654 27.3637C142.796 25.862 135.325 25.7068 104.485 26.5484C69.8562 27.493 39.1843 28.3016 33.9089 28.4072C0.126513 29.0896 -0.357669 29.1495 0.731755 32.4991ZM35.4522 34.1093C47.5805 33.8844 58.465 33.8479 59.6407 34.0292C61.042 34.2443 62.6629 37.3206 64.3465 42.957C72.2822 69.5198 89.0078 126.175 94.1419 143.884C97.4089 155.156 101.8 170.119 103.898 177.137C107.541 189.318 111.168 201.632 119.699 230.781C121.819 238.026 126.962 255.453 131.129 269.507C135.295 283.561 140.646 301.781 143.019 309.995C145.393 318.21 149.58 332.58 152.323 341.93C155.068 351.279 159.323 365.789 161.781 374.174C164.239 382.557 167.663 394.035 169.389 399.678C171.116 405.322 173.091 411.789 173.779 414.05C174.467 416.312 179.477 433.487 184.913 452.218C195.221 487.734 198.188 497.864 226.946 595.683C236.574 628.431 246.557 662.391 249.132 671.15C251.705 679.911 255.371 692.37 257.276 698.841C271.955 748.674 289.411 808.001 292.103 817.203C298.897 840.432 303.763 856.879 311.73 883.544C320.617 913.288 322.782 923.118 316.512 905.253C307.041 878.27 300.486 859.779 298.709 855.04C296.996 850.468 271.831 779.587 264.229 757.92C258.553 741.742 243.682 699.742 237.665 682.892C234.342 673.59 228.301 656.581 224.239 645.093C220.176 633.607 216.119 622.161 215.223 619.66C214.326 617.158 210.273 605.708 206.214 594.215C202.155 582.722 197.975 571.012 196.923 568.193C194.823 562.563 169.614 491.421 158.327 459.269C154.41 448.114 150.463 436.953 149.555 434.468C148.648 431.983 141.355 411.456 133.349 388.853C114.005 334.232 91.3571 270.46 71.7829 215.486C62.9836 190.775 55.4897 169.651 55.1293 168.544C53.5275 163.625 28.1937 91.9924 24.1995 81.0862C23.2894 78.6045 20.9583 71.9135 19.0194 66.2177C17.0796 60.523 15.3264 55.749 15.1215 55.6082C14.7921 55.3818 11.8906 47.0966 9.03016 38.2162C7.78506 34.3498 5.78738 34.6606 35.4522 34.1093ZM92.4985 34.6803L115.974 35.6985L121.99 61.4608C127.836 86.5006 133.504 110.384 135.589 118.766C137.135 124.979 151.852 187.344 156.977 209.396C159.453 220.055 162.484 232.924 163.712 237.994C164.939 243.065 167.203 252.689 168.742 259.382C170.282 266.076 176.699 293.156 183.003 319.56C189.307 345.965 196.91 378.086 199.898 390.942C202.886 403.796 206.56 419.385 208.063 425.584C209.565 431.782 212.781 445.384 215.21 455.81C217.824 467.032 220.307 474.727 221.294 474.67C222.286 474.612 222.375 474.902 221.512 475.387C220.681 475.853 222.623 487.001 226.073 501.561C229.377 515.511 237.159 548.449 243.367 574.756C249.573 601.065 264.838 665.596 277.289 718.159C289.739 770.723 301.314 819.746 303.01 827.1C304.706 834.456 306.474 842.115 306.938 844.121C309.084 853.392 305.121 840.762 292.87 799.282C285.57 774.565 278.42 750.272 276.98 745.298C275.541 740.324 263.355 698.893 249.9 653.228C236.445 607.563 220.234 552.414 213.877 530.675C202.861 493.005 200.006 483.287 193.936 462.814C184.891 432.302 147.235 304.187 143.058 289.714C140.295 280.142 135.078 262.378 131.464 250.237C123.992 225.139 84.1923 89.7481 74.5835 56.7449C71.0851 44.7279 68.4029 34.6193 68.6225 34.2801C68.842 33.9409 79.5871 34.1211 92.4985 34.6803ZM143.887 38.3555L164.865 40.3943L172.694 83.4949C177 107.199 181.118 127.004 181.844 127.503C182.572 128.003 182.906 129.701 182.588 131.276C181.947 134.439 192.721 196.455 194.071 197.383C194.535 197.702 194.809 199.338 194.68 201.019C194.55 202.699 205.15 262.784 218.234 334.541C231.318 406.298 249.758 507.58 259.21 559.612C268.663 611.644 281.802 683.941 288.408 720.269C295.013 756.598 300.232 786.594 300.003 786.927C299.398 787.807 298.894 785.953 294.799 767.81C292.766 758.805 287.515 736.333 283.129 717.869C268.828 657.677 267.428 651.766 262.869 632.381C247.638 567.6 239.725 534.298 238.134 528.28C237.69 526.6 236.524 521.497 235.544 516.942C234.564 512.387 229.188 489.516 223.597 466.119C218.005 442.721 210.229 409.996 206.317 393.398C198.804 361.517 173.449 254.289 166.667 225.707C164.462 216.411 160.871 201.174 158.686 191.848C156.502 182.521 151.343 160.669 147.221 143.288C143.099 125.907 136.781 99.2145 133.182 83.972C129.581 68.729 125.6 52.0886 124.333 46.9918C123.068 41.8956 122.229 37.4084 122.471 37.0212C122.711 36.6334 132.349 37.2344 143.887 38.3555ZM192.034 44.9128L210.216 47.5607L211.91 60.4497C212.841 67.5382 213.983 76.3563 214.448 80.0433C215.611 89.2593 219.048 115.92 221.589 135.418C222.75 144.331 224.081 155.07 224.549 159.284C225.016 163.497 226.684 176.639 228.255 188.488C229.826 200.338 231.505 212.993 231.984 216.61C232.464 220.227 233.336 227.409 233.922 232.571C234.995 242.023 244.11 313.847 246.014 327.86C247.659 339.964 258.61 426.277 259.447 433.727C259.866 437.466 261.207 448.026 262.427 457.194C263.645 466.362 265.918 483.961 267.476 496.302C273.291 542.367 276.649 569.041 277.351 574.735C278.324 582.643 287.457 654.517 289.128 667.437C289.862 673.107 291.969 689.256 293.81 703.324C295.651 717.392 297.091 730.293 297.01 731.993C296.871 734.928 296.836 734.925 296.328 731.941C295.518 727.177 278.182 632.478 276.884 625.722C276.259 622.475 273.282 606.019 270.265 589.153C267.25 572.287 264.048 557.984 263.152 557.368C262.256 556.753 262.06 555.465 262.718 554.509C263.773 552.973 262.59 550.974 259.998 549.917C259.516 549.721 259.753 549.206 260.524 548.774C261.295 548.341 261.485 547.684 260.948 547.315C260.411 546.946 260.443 545.957 261.019 545.118C261.595 544.28 261.063 538.342 259.836 531.925C258.609 525.508 257.486 519.355 257.342 518.255C256.952 515.294 235.458 396.988 231.686 377.043C231.508 376.105 230.308 369.398 229.021 362.138C226.969 350.566 189.526 144.229 176.017 70.0478C173.301 55.131 171.703 42.7771 172.465 42.5956C173.227 42.414 182.033 43.456 192.034 44.9128ZM227.692 29.1685C250.505 28.5971 288.788 27.6097 312.764 26.9771C336.74 26.3445 358.521 25.7914 361.166 25.7482C365.727 25.6741 398.42 24.8544 437.903 23.8221C447.796 23.5636 458.361 23.316 461.38 23.2721C464.4 23.2281 479.982 22.7983 496.007 22.3162C512.032 21.8341 527.309 21.4029 529.955 21.3596C532.601 21.3153 545.038 21.0124 557.593 20.6874C570.148 20.3613 582.283 20.0526 584.561 20.0008C612.568 19.3622 662.133 18.0566 671.695 17.7033C677.6 17.4858 682.597 17.4214 682.8 17.561C683.003 17.7005 687.144 17.6073 692.001 17.3545C696.86 17.1012 712.961 16.5978 727.784 16.235C742.606 15.8721 755.686 15.5241 756.851 15.4605C762.345 15.1624 780.672 14.812 780.946 15.0003C781.115 15.117 786.171 15.0262 792.181 14.7988C805.312 14.3032 843.597 13.2181 852.231 13.098C855.626 13.0511 869.323 12.6938 882.67 12.3037C896.016 11.9148 911.279 11.5033 916.587 11.3913C921.896 11.2794 936.205 10.9222 948.385 10.598C975.577 9.87404 969.609 10.0293 1025.16 8.61627C1096.11 6.81363 1101.8 6.71203 1102.57 7.23016C1102.97 7.4957 1095.25 19.1681 1085.42 33.1689L1067.56 58.6246L1044.93 57.945C1032.48 57.5713 1004.93 56.7256 983.716 56.0661C920.125 54.0917 891.909 53.2309 865.264 52.4562C839.823 51.7161 808.827 50.7654 752.149 48.9908C735.323 48.4632 708.98 47.6477 693.61 47.1764C678.239 46.7063 651.296 45.8722 633.738 45.3228C598.988 44.2355 562.751 43.1383 523.257 41.9787C489.254 40.9795 451.863 39.8306 410.15 38.5016C391.135 37.8959 367.762 37.2063 358.211 36.9684C348.659 36.7305 324.094 35.9954 303.622 35.3369C283.15 34.6772 258.588 33.9375 249.041 33.6926C226.601 33.1176 185.585 31.6964 184.009 31.4395C179.468 30.6987 191.351 30.0814 227.692 29.1685ZM233.035 51.6997C241.101 53.3673 248.346 55.4149 249.136 56.2476C249.925 57.0803 252.601 84.1322 255.083 116.363C259.947 179.541 261.346 194.098 262.644 194.99C263.103 195.305 262.997 196.262 262.409 197.117C261.822 197.972 262.972 219.652 264.965 245.295C268.766 294.181 277.604 410.454 284.593 503.476C288.457 554.907 288.892 558.265 291.559 557.07C294.2 555.886 294.265 554.05 292.448 531.486C290.008 501.17 273.096 280.459 266.523 193.154C263.827 157.362 260.325 112.354 258.738 93.1385C256.788 69.528 256.424 58.1987 257.615 58.1988C259.181 58.1976 278.603 63.3652 284.425 65.331C286.203 65.9313 286.8 71.5324 287.249 91.8038C287.885 120.572 288.181 130.96 288.874 148.914C289.34 161.028 291.95 255.015 292.717 287.293C292.931 296.315 293.283 308.852 293.497 315.152C294.09 332.512 296.25 410.072 296.533 424.249C296.672 431.116 297.285 437.147 297.896 437.65C298.508 438.154 298.643 439.661 298.197 440.998C297.752 442.334 297.493 450.024 297.623 458.083C297.856 472.617 300.483 570.15 301.236 592.19C301.733 606.769 302.613 639.069 302.821 650.365C302.91 655.129 302.661 657.27 302.269 655.122C301.394 650.324 301.939 656.771 298.162 606.556C295.331 568.943 294.612 563.666 292.253 563.268C289.837 562.86 290.056 569.611 294.447 630.584C297.13 667.858 299.146 698.23 298.926 698.079C298.707 697.928 297.353 688.242 295.919 676.556C294.485 664.868 291.34 639.937 288.93 621.152C286.521 602.367 283.416 577.97 282.032 566.936C279.143 543.922 275.51 515.311 268.26 458.468C265.453 436.456 259.295 388.032 254.577 350.858C249.859 313.685 243.739 265.621 240.979 244.049C238.219 222.476 234.273 191.373 232.213 174.929C230.151 158.484 227.923 141.295 227.259 136.73C226.596 132.164 225.572 124.16 224.983 118.943C222.494 96.8419 216.795 53.2195 216.167 51.4423C215.097 48.4222 217.353 48.4565 233.035 51.6997ZM239.284 39.1773C244.718 39.3245 268.3 40.0711 291.689 40.8365C315.078 41.6007 342.626 42.443 352.907 42.7085C363.188 42.9728 387.15 43.6939 406.157 44.31C425.165 44.9262 451.508 45.7416 464.698 46.1232C496.863 47.051 575.02 49.4088 628.434 51.063C657.21 51.9533 675.661 52.5168 740.228 54.4741C754.87 54.9177 781.811 55.7531 800.097 56.3312C818.384 56.9082 844.73 57.7201 858.643 58.1362C872.556 58.5523 895.921 59.2536 910.565 59.6938C925.209 60.1341 948.578 60.8295 962.495 61.241C1041.92 63.5834 1061.84 64.3809 1061.9 65.2181C1061.95 66.0458 1028.66 110.658 1028.05 110.573C1027.92 110.554 1020.9 109.91 1012.46 109.141C1004.02 108.372 989.075 106.986 979.248 106.061C958.904 104.145 934.365 101.981 926.721 101.428C923.873 101.223 913.188 100.312 902.974 99.4056C892.761 98.4984 878.056 97.2082 870.296 96.5383C862.535 95.8684 836.601 93.5684 812.663 91.4279C705.114 81.8103 656.702 77.5182 648.728 76.8926C645.181 76.6155 634.505 75.6904 625.003 74.8373C615.499 73.9854 597.895 72.4639 585.882 71.4581C573.869 70.4522 559.613 69.1466 554.201 68.5572C548.789 67.9679 535.543 66.7789 524.765 65.914C485.741 62.7856 447.854 59.2991 447.079 58.767C446.644 58.4676 445.147 58.9469 443.753 59.8329C442.359 60.7177 440.846 60.789 440.389 59.9921C439.934 59.1939 433.573 58.0074 426.257 57.354C418.941 56.7024 402.303 55.2075 389.285 54.0321C376.268 52.8556 356.079 51.0913 344.422 50.1103C332.767 49.1281 312.577 47.365 299.56 46.1896C286.541 45.0154 266.388 43.1988 254.776 42.154C243.163 41.108 232.592 40.2664 231.284 40.2812C228.761 40.3109 227.054 39.6283 228.527 39.1785C229.009 39.0302 233.85 39.0307 239.284 39.1773ZM318.164 53.7182C337.174 55.4173 363.975 57.7919 377.722 58.9936C391.47 60.1943 410.878 61.9396 420.85 62.8698C430.824 63.8007 439.085 63.877 439.207 63.0406C439.329 62.2043 439.627 62.1426 439.87 62.9039C440.35 64.4138 449.105 65.4836 489.11 68.9261C514.068 71.0738 558.528 74.9583 599.347 78.5571C609.564 79.4574 620.809 80.4441 624.336 80.749C635.029 81.6719 677.89 85.4357 705.068 87.8377C744.72 91.3413 779.386 94.3727 809.233 96.947C824.239 98.2417 836.695 99.4237 836.915 99.5747C837.134 99.7257 845.032 100.451 854.466 101.187C871.109 102.485 962.862 110.552 1002.73 114.222C1013.56 115.218 1022.44 116.346 1022.46 116.726C1022.51 117.446 995.865 150.636 992.244 154.363C990.11 156.56 988.407 156.357 901.829 143.577C885.546 141.173 869.445 138.799 866.05 138.302C862.656 137.803 852.113 136.24 842.621 134.828C833.129 133.415 820.088 131.483 813.64 130.535C807.193 129.586 793.597 127.571 783.427 126.057C773.258 124.543 754.086 121.744 740.824 119.837C727.561 117.931 704.809 114.559 690.263 112.344C665.098 108.513 656.084 107.183 617.472 101.611C608.294 100.285 596.914 98.6039 592.186 97.8726C583.083 96.466 571.602 94.7658 548.405 91.3893C540.591 90.2527 527.543 88.3307 519.408 87.1195C511.272 85.9082 499.889 84.2325 494.111 83.3967C480.454 81.4198 439.534 75.3953 432.415 74.3123C408.311 70.6475 313.227 56.6487 291.13 53.5124C260.063 49.1026 267.163 49.1579 318.164 53.7182ZM304.257 71.9799C310.585 74.1859 316.498 76.1048 317.398 76.2438C318.381 76.3951 318.902 81.719 318.702 89.5737C318.519 96.7672 318.164 113.268 317.913 126.245C317.661 139.221 317.117 165.359 316.705 184.33C316.292 203.301 315.761 229.448 315.526 242.435C314.51 298.494 312.801 382.273 312.556 388.086C312.409 391.563 311.968 411.747 311.575 432.941C309.988 518.734 308.211 603.949 307.861 611.15L307.7 614.455L307.399 610.833C307.051 606.62 306.48 588.241 305.941 563.781C305.731 554.3 305.046 530.386 304.419 510.639C303.791 490.893 303.222 470.871 303.154 466.145C303.086 461.421 302.767 448.92 302.444 438.366C302.121 427.813 301.55 408.209 301.177 394.803C300.802 381.397 300.371 366.5 300.219 361.699C300.067 356.899 299.636 340.091 299.262 324.35C298.586 295.893 296.509 222.56 295.341 185.87C295.005 175.307 294.556 158.093 294.344 147.616C294.131 137.138 293.774 123.829 293.55 118.04C292.581 92.9839 292.009 69.1004 292.367 68.5569C292.578 68.2329 297.929 69.7738 304.257 71.9799ZM336.581 84.5118C342.862 87.1584 347.725 89.8535 347.651 90.6465C347.579 91.4253 346.491 107.852 345.234 127.148C342.729 165.563 338.912 222.546 335.776 268.307C334.669 284.452 331.652 329.638 329.069 368.72C326.487 407.802 323.34 455.204 322.075 474.058C320.81 492.913 318.716 524.497 317.424 544.244C314.068 595.474 313.557 594.093 314.9 537.435C316.402 474.104 316.836 453.366 316.68 452.42C316.593 451.891 316.65 447.319 316.808 442.262C316.966 437.204 317.214 427.001 317.361 419.588C318.663 353.451 319.306 321.285 319.783 298.3C320.092 283.484 320.626 257.3 320.97 240.114C321.314 222.927 321.903 194.182 322.28 176.236C322.656 158.29 323.065 136.788 323.188 128.455C323.589 101.16 324.266 81.4149 324.828 80.5972C325.132 80.1554 330.421 81.9173 336.581 84.5118ZM353.648 68.8143C361.969 70.0285 377.936 72.3734 389.13 74.0272C400.325 75.6797 417.263 78.1708 426.769 79.5624C436.275 80.9541 449.05 82.8285 455.158 83.7274C461.267 84.6251 469.609 85.833 473.696 86.4114C477.782 86.9897 486.106 88.223 492.194 89.152C498.28 90.0822 519.088 93.1701 538.432 96.0143C557.776 98.8595 582.208 102.455 592.726 104.006C603.244 105.557 618.79 107.848 627.273 109.098C635.755 110.348 652.121 112.781 663.641 114.505C675.161 116.228 687.945 118.09 692.05 118.642C702.178 120.002 763.876 129.186 795.593 134.057C809.789 136.237 822.771 137.512 824.442 136.891C826.112 136.27 827.247 136.412 826.965 137.204C826.655 138.072 830.141 139.157 835.735 139.934C840.841 140.644 853.068 142.413 862.906 143.865C872.743 145.319 882.501 146.69 884.59 146.913C886.678 147.136 897.215 148.709 908.005 150.408C918.795 152.107 938.458 155.08 951.702 157.014C964.945 158.948 977.812 160.889 980.294 161.328L984.805 162.124L980.536 167.212C971.269 178.259 954.524 196.432 953.26 196.815C952.525 197.039 939.656 194.607 924.664 191.411C855.336 176.638 782.098 161.233 779.829 160.947C778.454 160.774 760.546 157.025 740.036 152.616C719.524 148.208 676.316 139.014 644.016 132.185C515.337 104.978 340.751 68.1645 339.307 67.9322C338.466 67.798 337.944 67.4444 338.148 67.1475C338.352 66.8505 345.327 67.6002 353.648 68.8143ZM377.553 82.1157C387.993 84.2465 414.847 89.9022 437.228 94.6834C464.002 100.403 479.145 102.986 481.493 102.237C483.457 101.609 484.322 101.546 483.416 102.098C482.481 102.667 482.265 103.442 482.918 103.89C483.55 104.325 543.115 117.13 615.285 132.347C687.455 147.563 770.266 165.026 799.312 171.153C828.357 177.279 873.616 186.821 899.888 192.357C926.16 197.892 947.681 202.791 947.712 203.241C947.775 204.14 924.6 228.554 920.788 231.605C918.135 233.727 918.39 233.781 879.351 222.744C865.272 218.763 848.557 214.169 842.206 212.535C835.856 210.901 825.558 208.092 819.32 206.294C813.082 204.497 802.832 201.617 796.541 199.896C790.251 198.174 773.545 193.568 759.416 189.66C745.286 185.752 729.347 181.365 723.994 179.911C718.641 178.456 707.349 175.314 698.899 172.929C690.45 170.543 681.167 168.035 678.272 167.355C675.376 166.675 668.164 164.713 662.244 162.997C656.324 161.28 646.077 158.396 639.473 156.588C632.87 154.778 619.512 151.083 609.791 148.373C600.068 145.665 587.947 142.394 582.855 141.104C577.763 139.814 571.6 138.105 569.159 137.307C566.718 136.509 552.345 132.512 537.218 128.425C522.091 124.337 503.562 119.269 496.043 117.162C461.967 107.615 446.341 103.32 437.752 101.145C432.66 99.8551 426.499 98.1431 424.061 97.3415C421.623 96.54 410.078 93.3202 398.405 90.1871C386.733 87.0539 373.559 83.4421 369.129 82.1627C364.699 80.882 360.042 79.6505 358.781 79.4257C357.519 79.2009 356.956 78.8426 357.529 78.6288C358.103 78.415 367.114 79.9838 377.553 82.1157ZM363.372 96.926C371.486 100.798 373.239 102.041 373.321 103.98C373.375 105.274 369.372 141.974 364.424 185.535C359.476 229.095 349.446 317.491 342.135 381.969C322.163 558.127 323.207 549.227 322.948 545.528C322.845 544.048 324.131 522.647 325.807 497.969C327.481 473.291 329.794 438.441 330.945 420.521C332.096 402.602 333.403 383.406 333.85 377.863C334.296 372.321 334.78 365.292 334.924 362.243C335.069 359.195 336.31 340.567 337.684 320.848C340.664 278.043 345.674 202.627 349.726 139.572C351.345 114.386 352.861 93.4297 353.097 93.0023C353.33 92.5754 357.955 94.3417 363.372 96.926ZM381.68 107.109C383.085 107.51 387.175 109.846 390.767 112.303C397.205 116.704 397.283 116.836 396.258 121.603C395.05 127.211 395.505 124.489 387.493 174.067C384.078 195.201 380.958 214.957 380.561 217.972C380.162 220.985 379.152 227.591 378.316 232.652C377.478 237.711 373.612 261.566 369.725 285.662C365.837 309.758 360.53 342.612 357.93 358.671C355.33 374.73 352.165 394.455 350.895 402.505C347.384 424.768 335.597 497.927 334.546 503.976C331.997 518.649 334.557 494.547 349.168 366.31C357.901 289.661 368.011 200.168 371.634 167.436C375.257 134.706 378.425 107.579 378.672 107.154C378.92 106.729 380.273 106.71 381.68 107.109ZM403.586 97.9709C407.241 98.9066 414.576 100.91 419.887 102.426C425.198 103.941 434.685 106.597 440.968 108.328C447.252 110.06 455.726 112.409 459.8 113.549C463.874 114.689 475.953 118.021 486.642 120.954C497.332 123.885 509.411 127.217 513.485 128.359C517.559 129.499 534.279 134.085 550.64 138.55C567.003 143.015 582.945 147.399 586.069 148.29C589.192 149.183 599.99 152.155 610.065 154.894C620.14 157.632 640.958 163.373 656.327 167.652C671.696 171.931 688.417 176.515 693.486 177.839C698.554 179.164 708.604 181.89 715.818 183.899C723.031 185.908 743.06 191.463 760.325 196.245C777.59 201.028 795.549 206.035 800.234 207.373C804.92 208.711 817.539 212.147 828.276 215.01C839.014 217.871 853.154 221.764 859.697 223.661C866.241 225.556 876.523 228.39 882.546 229.956C904.33 235.624 912.38 238.056 912.445 238.987C912.502 239.789 887.854 264.289 886.501 264.776C885.791 265.032 874.532 261.364 857.055 255.184C848.337 252.102 837.212 248.271 832.332 246.671C817.745 241.888 787.618 231.584 780.076 228.796C773.276 226.282 682.731 195.111 663.602 188.699C658.439 186.969 647.534 183.264 639.368 180.465C608.085 169.747 593.233 164.666 579.411 159.953C571.541 157.269 556.968 152.228 547.026 148.751C537.085 145.274 524.717 141.028 519.542 139.315C514.368 137.601 503.458 133.901 495.301 131.091C417.108 104.151 399.985 98.2962 398.206 97.8915C397.076 97.6339 396.328 97.1642 396.545 96.8476C396.763 96.5309 399.931 97.0363 403.586 97.9709ZM410.037 124.171L416.957 129.425L413.338 146.576C403.24 194.439 400.302 208.634 400.192 210.118C400.125 211.011 397.769 222.456 394.957 235.551C392.145 248.646 389.487 261.42 389.051 263.938C388.615 266.456 386.564 276.573 384.493 286.42C382.421 296.267 379.76 309.039 378.578 314.801C377.396 320.563 375.256 331.004 373.823 338.002C372.389 345 368.7 362.828 365.624 377.621C362.548 392.413 359.073 409.236 357.901 415.005C356.729 420.774 354.517 431.549 352.985 438.949C351.453 446.349 348.998 458.301 347.529 465.511C346.062 472.72 344.667 478.486 344.431 478.324C344.077 478.08 351.109 432.174 353.07 421.931C353.387 420.27 357.077 397.447 361.268 371.211C373.538 294.416 390.547 188.68 395.034 161.319C397.317 147.391 399.612 132.831 400.133 128.962C401.563 118.338 402.047 118.104 410.037 124.171ZM463.787 126.53C477.701 131.294 492.505 136.444 496.687 137.972C500.868 139.5 508.527 142.146 513.706 143.853C518.886 145.558 537.937 152.091 556.043 158.368C574.148 164.646 594.185 171.523 600.57 173.652C606.954 175.779 620.322 180.35 630.275 183.81C640.228 187.27 653.587 191.854 659.961 193.997C666.335 196.141 677.225 199.867 684.162 202.28C691.098 204.692 704.732 209.32 714.459 212.565C732.012 218.419 746.833 223.578 757.221 227.451C760.195 228.561 767.86 231.198 774.253 233.313C788.162 237.914 812.156 246.073 828.772 251.852C838.273 255.157 864.146 264.067 877.94 268.785C878.998 269.147 879.435 270.069 878.911 270.831C877.553 272.807 856.606 291.326 855.221 291.776C854.166 292.118 846.371 289.061 818.661 277.437C813.15 275.126 803.136 271.013 796.407 268.299C789.678 265.584 781.571 262.256 778.391 260.902C767.763 256.376 740.038 244.843 725.027 238.707C703.85 230.046 672.059 216.834 665.313 213.888C662.151 212.508 649.783 207.373 637.826 202.478C616.65 193.807 581.812 179.39 499.77 145.347C477.673 136.178 455.259 126.977 449.96 124.9C436.166 119.493 430.066 116.846 427.981 115.362C425.617 113.679 432.854 115.936 463.787 126.53ZM434.097 143.38C434.158 144.237 429.217 164.51 423.117 188.428C412.757 229.056 382.444 349.4 376.394 373.923C368.201 407.133 355.939 454.404 355.483 454.544C355.192 454.633 356.883 445.489 359.24 434.226C361.596 422.963 364.759 407.679 366.267 400.262C367.774 392.845 370.975 377.37 373.377 365.872C375.78 354.375 378.184 342.603 378.721 339.714C379.258 336.825 381.477 326.054 383.653 315.781C385.829 305.506 389.456 287.995 391.712 276.867C393.97 265.739 397.797 247.237 400.219 235.752C402.641 224.267 405.232 211.831 405.978 208.118C409.512 190.536 413.79 169.751 417.372 152.764L421.304 134.12L427.646 137.969C431.134 140.084 434.037 142.52 434.097 143.38ZM444.433 151.212C449.075 154.872 449.404 155.565 448.425 159.591C447.247 164.429 440.263 188.139 425.415 237.699C420.048 255.613 413.099 278.886 409.973 289.417C406.848 299.949 401.156 319.09 397.325 331.955C393.496 344.82 386.204 369.395 381.122 386.565C366.743 435.16 366.934 432.025 381.968 372.631C385.917 357.03 394.256 323.954 400.499 299.129C406.742 274.304 415.17 240.904 419.226 224.908C423.283 208.911 429.211 185.321 432.398 172.484C435.585 159.647 438.459 148.712 438.784 148.184C439.108 147.655 441.651 149.018 444.433 151.212ZM470.265 139.84C473.988 141.491 488.248 147.432 501.954 153.044C534.471 166.357 607.769 196.708 615.133 199.911C618.297 201.287 633.777 207.679 649.531 214.116C665.285 220.552 682.199 227.565 687.115 229.701C692.034 231.837 701.78 235.855 708.775 238.628C715.771 241.402 725.517 245.42 730.435 247.555C735.352 249.691 752.017 256.623 767.466 262.958C814.157 282.108 846.064 295.417 847.277 296.25C848.051 296.782 844.853 300.001 837.445 306.143C831.406 311.149 825.939 315.402 825.298 315.593C824.656 315.784 815.9 311.9 805.842 306.962C795.783 302.024 776.112 292.391 762.127 285.555C748.143 278.718 724.809 267.295 710.274 260.171C695.74 253.047 678.351 244.541 671.634 241.266C659.241 235.226 650.297 230.843 611.157 211.627C584.843 198.709 546.885 180.081 511.073 162.511C496.542 155.383 477.262 145.991 468.229 141.643C459.196 137.296 451.261 133.272 450.595 132.703C449.102 131.426 461.112 135.783 470.265 139.84ZM458.252 164.733C460.365 166.822 462.163 169.122 462.246 169.845C462.329 170.566 458.663 181.981 454.099 195.211C444.322 223.554 409.851 323.83 393.449 371.647C387.112 390.118 381.626 405.323 381.258 405.436C380.89 405.548 384.541 392.456 389.374 376.343C394.206 360.228 400.624 338.748 403.638 328.609C406.651 318.47 414.644 291.688 421.4 269.094C428.155 246.499 437.901 213.621 443.056 196.032C448.21 178.442 452.873 163.348 453.418 162.492C454.171 161.307 455.332 161.846 458.252 164.733ZM546.087 186.694C561.178 194.095 580.858 203.716 589.819 208.076C598.78 212.435 620.05 222.856 637.087 231.233C654.123 239.61 675.848 250.259 685.366 254.896C708.704 266.268 745.325 284.217 750.923 287.028C753.424 288.284 758.296 290.536 761.752 292.032C765.208 293.527 769.595 295.819 771.501 297.122C773.409 298.425 775.265 299.06 775.628 298.532C775.99 298.004 777.297 298.549 778.533 299.742C779.768 300.936 789.406 306.041 799.948 311.089C810.491 316.138 818.866 320.633 818.558 321.081C818.251 321.528 813.317 325.223 807.595 329.289L797.191 336.683L791.823 333.95C788.87 332.446 775.731 325.023 762.625 317.451C723.938 295.104 694.83 278.447 681.194 270.851C674.168 266.938 660.781 259.281 651.445 253.836C642.109 248.391 618.855 235.074 599.768 224.244C580.681 213.414 557.182 200.008 547.548 194.452C537.914 188.897 518.547 177.93 504.51 170.083C490.473 162.235 477.781 154.902 476.305 153.787C473.403 151.596 502.333 165.238 546.087 186.694ZM483.374 192.114C510.435 222.351 520.665 233.753 532.929 247.355C539.715 254.879 550.629 267.024 557.184 274.341C563.737 281.66 576.777 296.049 586.161 306.317C595.545 316.586 605.619 327.728 608.549 331.077C617.366 341.159 657.918 386.214 667.489 396.563C670.275 399.576 672.633 402.675 672.729 403.451C672.824 404.226 667.226 406.998 660.286 409.611C647.734 414.337 633.277 419.891 566.474 445.648C547.214 453.074 529.28 459.959 526.619 460.948C523.958 461.937 510.323 467.166 496.318 472.569C474.256 481.079 443.608 492.849 376.901 518.424C368.053 521.815 360.174 525.497 359.391 526.602C358.609 527.707 357.465 528.267 356.853 527.845C356.24 527.424 352.835 527.929 349.287 528.969C345.738 530.008 343.317 530.158 343.905 529.302C344.77 528.044 390.087 397.547 404.977 353.437C407.035 347.338 412.293 332.124 416.66 319.628C421.026 307.132 426.281 291.916 428.337 285.815C435.411 264.825 462.067 187.713 465.065 179.566C466.152 176.615 466.938 175.593 467.897 175.891C468.627 176.118 475.591 183.418 483.374 192.114ZM514.186 182.694C535.281 194.646 611.003 237.857 633.502 250.782C638.726 253.782 643.339 255.746 643.752 255.145C644.173 254.531 644.805 254.868 645.193 255.914C645.828 257.62 650.538 260.551 674.273 274.001C678.845 276.592 689.596 282.746 698.164 287.677C706.733 292.608 719.698 299.988 726.977 304.076C765.388 325.651 789.502 339.752 789.566 340.672C789.64 341.708 771.374 354.653 769.793 354.686C769.331 354.696 738.395 334.22 701.046 309.185C663.698 284.149 631.748 263.022 630.046 262.236C628.343 261.451 601.832 243.976 571.131 223.405C540.429 202.833 509.491 182.458 502.379 178.126C495.267 173.795 489.843 170.12 490.326 169.962C490.809 169.804 501.545 175.533 514.186 182.694ZM523.19 199.25C529.796 203.23 559.06 222.482 588.221 242.033C646.933 281.395 689.6 309.65 734.738 339.064L764.685 358.577L755.687 364.144C750.739 367.205 746.488 369.798 746.242 369.905C745.756 370.116 694.721 332.057 678.889 319.676C667.31 310.622 588.528 250.908 542.884 216.592C525.03 203.169 510.593 192.148 510.801 192.1C511.009 192.052 516.583 195.27 523.19 199.25ZM521.68 207.377C522.187 207.726 522.223 208.565 521.759 209.24C521.295 209.915 520.721 209.86 520.484 209.117C520.248 208.374 520.212 207.536 520.406 207.255C520.599 206.973 521.172 207.028 521.68 207.377ZM542.957 224.362C552.44 231.495 563.55 240.019 567.645 243.303C571.74 246.588 588.647 259.354 605.216 271.673C621.785 283.993 639.726 297.478 645.085 301.643C661.305 314.249 697.47 341.701 716.073 355.528C725.719 362.697 734.774 369.742 736.196 371.184L738.779 373.805L730.592 378.354C726.088 380.856 722.003 382.594 721.512 382.218C721.021 381.842 711.277 373.33 699.858 363.305C688.44 353.278 678.43 345.242 677.614 345.447C676.799 345.65 675.743 344.834 675.268 343.631C674.255 341.068 674.073 340.904 636.146 308.223C620.071 294.371 593.968 271.853 578.141 258.181C562.315 244.51 543.875 228.635 537.165 222.904C530.456 217.173 525.133 212.239 525.339 211.938C525.545 211.639 533.473 217.23 542.957 224.362ZM544.655 237.52C559.793 250.632 595.628 281.549 647.734 326.454C693.768 366.124 715.376 385.043 715.423 385.718C715.447 386.058 712.083 387.97 707.948 389.963C701.486 393.08 700.149 393.272 698.427 391.326C697.325 390.08 692.013 384.802 686.623 379.595C674.896 368.267 653.785 347.666 630.505 324.833C621.13 315.639 605.227 300.077 595.163 290.254C585.099 280.431 569.576 265.206 560.666 256.423C551.756 247.641 540.879 237.008 536.495 232.796C532.11 228.585 528.829 225.045 529.202 224.931C529.575 224.817 536.53 230.482 544.655 237.52ZM346.774 495.844C347.255 496.72 346.847 496.844 345.734 496.161C344.727 495.543 344.371 494.895 344.942 494.72C345.513 494.546 346.338 495.051 346.774 495.844ZM358.307 531.381C367.074 528.028 381.391 522.511 390.122 519.119C398.853 515.728 406.43 512.866 406.961 512.761C407.491 512.656 426.134 505.49 448.391 496.836C470.648 488.183 493.557 479.338 499.301 477.18C505.044 475.022 520.692 469.064 534.074 463.937C547.456 458.811 558.666 454.797 558.988 455.018C559.309 455.239 557.929 456.02 555.922 456.753C551.194 458.481 486.711 486.743 477.484 491.131C473.598 492.979 459.64 499.158 446.467 504.86C433.293 510.564 417.57 517.427 411.526 520.112C405.483 522.796 388.754 530.129 374.352 536.404C359.95 542.681 345.954 548.912 343.251 550.252C340.547 551.592 338.032 552.479 337.662 552.225C336.89 551.695 339.573 542.017 341.246 539.294C341.861 538.294 349.538 534.732 358.307 531.381ZM562.523 266.882C569.713 274.193 578.945 283.307 583.039 287.135C587.133 290.965 596.48 300.052 603.809 307.329C618.635 322.049 640.696 343.605 659.9 362.132C666.865 368.852 674.722 376.549 677.359 379.236C679.996 381.924 684.01 385.869 686.277 388.007C688.546 390.143 691.141 392.81 692.045 393.933L693.688 395.976L689.757 397.788C679.309 402.603 681.329 403.324 670.452 390.904C665.084 384.777 651.667 369.761 640.637 357.539C629.608 345.315 608.788 322.228 594.371 306.234C579.956 290.238 562.945 271.395 556.57 264.36C541.723 247.974 545.502 249.575 562.523 266.882ZM384.372 537.898C411.292 526.053 438.791 513.975 445.48 511.058C452.169 508.142 473.99 498.548 493.969 489.739C513.948 480.928 531.346 473.291 532.63 472.764C533.914 472.238 546.684 466.605 561.006 460.248C575.329 453.89 587.246 448.824 587.488 448.99C588.123 449.427 585.792 450.72 575.111 455.853C569.884 458.366 554.582 465.908 541.107 472.613C527.632 479.319 506.631 489.703 494.435 495.688C474.19 505.625 451.14 516.13 471.107 511.029L462.412 516.807L475.704 511.067C479.465 509.106 486.145 505.75 490.549 503.611C494.953 501.472 519.949 489.066 546.097 476.043C572.245 463.019 596.117 451.197 599.148 449.771C608.752 445.253 605.187 448.197 593.375 454.538C578.343 462.608 568.044 468.274 549.049 478.926C540.395 483.779 519.664 495.274 502.98 504.47C486.296 513.667 466.62 524.557 459.255 528.67C445.79 536.19 385.889 569.362 347.537 590.538C336.2 596.798 326.461 601.823 325.895 601.704C324.704 601.454 327.059 587.423 328.69 585.05C329.884 583.311 338.017 579.14 396.033 550.505C403.987 546.579 415.032 541.106 420.577 538.343C426.123 535.58 437.179 530.115 445.145 526.197C464.46 516.702 463.69 517.209 463.946 513.8C464.155 511.033 463.988 510.965 460.773 512.496C458.907 513.386 444.072 520.721 427.807 528.797C411.543 536.872 395.309 544.927 391.734 546.696C388.158 548.465 373.347 555.811 358.82 563.02C344.292 570.228 331.943 576.268 331.376 576.442C330.478 576.716 333.599 562.51 334.929 560.27C335.202 559.81 357.451 549.743 384.372 537.898ZM369.524 584.453C394.559 570.59 422.975 554.822 432.672 549.413C454.734 537.105 475.964 525.335 494.837 514.946C502.87 510.524 512.168 505.387 515.496 503.53C530.387 495.224 608.055 452.192 619.499 445.907C626.479 442.074 632.206 439.17 632.225 439.454C632.26 439.949 625.877 443.921 587.772 467.116C578.35 472.851 567.415 479.552 563.473 482.008C559.531 484.464 544.186 493.898 529.376 502.974C514.565 512.048 499.796 521.109 496.557 523.11C493.317 525.109 477.953 534.53 462.415 544.044C426.191 566.223 379.49 594.913 346.665 615.152C332.456 623.914 320.53 630.893 320.161 630.663C319.333 630.145 321.929 613.051 323.133 611.083C323.613 610.298 344.489 598.315 369.524 584.453ZM323.191 635.302C324.752 634.522 331.333 630.612 337.815 626.615C344.297 622.617 351.991 617.915 354.913 616.166C357.835 614.417 367.876 608.254 377.227 602.471C406.256 584.518 528.32 509.618 549.847 496.551C561.095 489.723 576.158 480.481 583.322 476.012C590.486 471.543 598.727 466.449 601.634 464.69C604.542 462.932 616.951 455.322 629.209 447.781C653.228 433.004 660.15 429.385 646.144 438.928C618.025 458.086 578.027 485.225 537.365 512.733C511.884 529.972 476.978 553.626 459.797 565.298C319.595 660.543 318.529 661.257 316.836 661.131C315.58 661.038 317.681 640.873 319.189 638.528C319.83 637.533 321.631 636.081 323.191 635.302ZM331.291 658.619C339.823 652.867 361.427 638.232 379.299 626.095C417.984 599.825 476.728 560.015 536.934 519.268C561.033 502.958 592.822 481.388 607.576 471.335C644.896 445.907 687.063 417.695 688.154 417.424C689.391 417.118 688.492 417.805 665.798 434.505C654.908 442.518 642.535 451.689 638.301 454.883C634.068 458.079 617.156 470.662 600.72 482.846C566.398 508.287 557.75 514.705 540.389 527.619C533.499 532.746 511.977 548.692 492.564 563.057C461.703 585.892 453.273 592.145 435.801 605.16C433.835 606.626 429.783 609.605 426.8 611.781C423.815 613.956 417.915 618.354 413.686 621.553C388.225 640.814 315.109 694.921 313.97 695.346C312.526 695.883 313.385 672.658 314.893 670.403C315.38 669.673 322.759 664.371 331.291 658.619ZM331.218 689.312C341.307 681.809 352.476 673.449 356.04 670.733C359.603 668.016 375.195 656.447 390.688 645.023C418.84 624.263 486.192 574.319 503.033 561.714C507.939 558.041 532.927 539.483 558.562 520.471C584.197 501.46 609.191 482.905 614.105 479.238C623.625 472.131 651.468 451.501 667.311 439.814C672.584 435.924 678.479 431.523 680.412 430.034C682.345 428.544 686.368 425.546 689.35 423.369C692.334 421.193 698.378 416.693 702.781 413.368C713.82 405.037 713.025 407.367 701.851 416.098C696.87 419.99 676.664 436.295 656.95 452.332C637.236 468.368 616.984 484.803 611.945 488.853C606.904 492.903 598.915 499.323 594.191 503.121C589.467 506.918 580.505 514.206 574.275 519.317C558.007 532.665 518.916 564.328 502.422 577.517C499.263 580.043 484.659 591.906 469.968 603.881C442.308 626.429 431.379 635.258 418.577 645.407C414.005 649.032 411.112 652.009 411.165 653.034C411.304 655.726 409.532 657.51 407.352 656.872C405.895 656.446 398.301 662.006 379.844 677.015C365.822 688.417 350.468 700.843 345.724 704.627C340.98 708.41 332.006 715.669 325.782 720.756C319.557 725.843 313.665 730.496 312.688 731.095C311.428 731.866 311.014 728.197 311.264 718.485C311.459 710.951 311.901 704.375 312.247 703.87C312.594 703.365 321.131 696.814 331.218 689.312ZM324.591 728.252C332.024 722.24 351.443 706.509 367.746 693.293C384.048 680.078 406.121 662.204 416.797 653.575C427.474 644.947 445.43 630.391 456.698 621.23C467.966 612.068 490.029 594.188 505.727 581.496C544.007 550.544 571.758 528.021 585.476 516.769C591.707 511.659 599.37 505.488 602.504 503.057C605.64 500.626 608.803 497.765 609.533 496.703C610.264 495.639 611.575 494.529 612.447 494.236C613.318 493.942 626.072 483.92 640.79 471.963C655.508 460.007 670.654 447.747 674.445 444.717C678.238 441.688 697.623 426.007 717.525 409.869C737.427 393.731 753.73 380.825 753.755 381.189C753.781 381.552 699.266 429.955 632.611 488.752C565.955 547.549 471.038 631.299 421.684 674.865C312.988 770.812 313.661 770.227 312.356 769.819C311.58 769.575 310.243 740.497 310.956 739.373C311.022 739.268 317.158 734.264 324.591 728.252ZM300.952 788.271C301.143 788.402 301.242 789.816 301.172 791.41C301.055 794.038 300.995 794.057 300.522 791.609C300.026 789.036 300.193 787.749 300.952 788.271ZM346.806 747.617C364.915 731.663 388.063 711.27 398.246 702.302C408.427 693.332 471.344 637.828 538.061 578.958C604.777 520.087 673.323 459.614 690.384 444.572C707.446 429.53 728.986 410.522 738.252 402.333C781.46 364.141 788.166 358.293 788.199 358.767C788.234 359.261 786.045 361.404 760.922 385.468C754.356 391.756 742.452 403.17 734.468 410.832C706.883 437.303 680.024 463.009 658.658 483.39C650.645 491.032 641.585 499.79 638.523 502.851C631.542 509.831 586.04 553.483 578.891 560.059C575.969 562.747 551.185 586.441 523.816 612.714C496.447 638.986 467.522 666.751 459.54 674.413C451.557 682.076 440.583 692.592 435.152 697.783C424.593 707.878 413.18 718.821 384.321 746.523C374.342 756.102 361.725 768.178 356.283 773.361C350.841 778.544 339.668 789.307 331.455 797.281C323.241 805.254 315.991 811.976 315.342 812.218C313.773 812.804 311.291 780.388 312.743 778.275C313.368 777.367 328.695 763.572 346.806 747.617ZM340.21 795.785C353.419 783.167 371.445 765.894 380.267 757.398C404.705 733.868 421.785 717.478 437.818 702.176C445.828 694.533 461.927 679.085 473.594 667.849C498.124 644.225 511.739 631.188 553.534 591.3C558.968 586.112 570.401 575.142 578.938 566.922C602.389 544.339 619.153 528.267 669.197 480.387C694.334 456.338 716.583 434.359 718.638 431.545C720.693 428.731 723.244 426.257 724.305 426.047C725.368 425.838 730.898 421.186 736.596 415.71C756.161 396.904 779.127 374.904 790.57 364.006C796.871 358.005 805.223 349.914 809.131 346.025C813.039 342.136 815.989 339.648 815.687 340.496C815.22 341.805 808.303 349.192 775.917 382.966C773.746 385.231 763.269 396.089 752.635 407.095C742.001 418.102 729.107 431.525 723.98 436.924C718.853 442.323 704.863 456.914 692.889 469.347C680.916 481.782 668.022 495.205 664.236 499.177C660.45 503.15 648.656 515.408 638.027 526.418C627.399 537.428 615.606 549.687 611.822 553.661C608.038 557.635 596.244 569.893 585.614 580.902C574.983 591.911 562.096 605.339 556.977 610.743C551.858 616.147 538.967 629.573 528.331 640.578C517.695 651.583 504.799 665.005 499.673 670.404C494.546 675.803 481.653 689.228 471.023 700.237C460.392 711.245 447.494 724.665 442.361 730.06C437.227 735.454 424.331 748.877 413.704 759.887C403.075 770.897 392.223 782.266 389.588 785.151C386.952 788.036 379.626 795.68 373.307 802.138C358.784 816.983 334.999 841.702 327.045 850.218C323.693 853.807 320.489 856.771 319.927 856.803C318.588 856.882 314.177 821.661 315.319 820C315.8 819.299 327.001 808.403 340.21 795.785ZM677.183 295.469C677.69 295.817 677.747 296.625 677.309 297.263C676.87 297.901 676.096 298.137 675.589 297.788C675.081 297.439 675.025 296.632 675.463 295.994C675.901 295.356 676.675 295.12 677.183 295.469ZM341.39 842.532C350.642 832.925 363.506 819.48 369.975 812.656C376.444 805.831 389.333 792.404 398.616 782.818C407.901 773.232 419.687 760.968 424.81 755.567C429.932 750.164 442.831 736.744 453.475 725.745C464.118 714.745 475.913 702.487 479.686 698.506C483.459 694.524 496.352 681.1 508.337 668.675C520.323 656.249 533.218 642.827 536.995 638.848C540.771 634.869 552.551 622.601 563.172 611.585C573.793 600.57 590.243 583.443 599.727 573.525C620.486 551.815 624.343 547.799 649.129 522.095C659.75 511.079 677.176 492.894 687.853 481.684C698.528 470.472 711.021 457.541 715.612 452.947C720.204 448.353 727.643 440.594 732.145 435.705C736.647 430.815 751.032 415.728 764.114 402.177C809.981 354.663 816.724 347.671 827.99 335.933C834.238 329.425 843.287 319.951 848.102 314.879C864.948 297.136 855.548 308.924 827.79 340.353C796.513 375.765 794.4 378.169 790.518 382.755C789.009 384.536 783.814 390.325 778.974 395.62C774.132 400.915 767.343 408.544 763.886 412.574C760.428 416.602 746.391 432.56 732.692 448.034C718.993 463.509 703.583 480.966 698.447 486.829C693.311 492.691 680.855 506.8 670.767 518.181C660.679 529.563 645.676 546.532 637.426 555.889C620.83 574.717 595.423 603.495 567.521 635.067C557.452 646.461 547.16 658.215 544.65 661.186C542.142 664.158 539.008 667.768 537.685 669.207C528.589 679.117 490.97 721.61 441.344 778.031C422.294 799.689 401.484 823.237 395.101 830.36C388.718 837.483 382.859 844.791 382.083 846.602C381.287 848.458 380.272 849.617 379.754 849.261C379.249 848.914 376.86 850.922 374.445 853.724C367.941 861.269 332.901 900.962 330.293 903.739C328.048 906.13 328.042 906.125 326.751 899.68C326.038 896.131 325.056 890.609 324.567 887.409C324.079 884.208 322.911 877.692 321.973 872.926C320.636 866.133 320.732 863.801 322.416 862.131C323.598 860.959 332.136 852.139 341.39 842.532ZM340.433 899.936C344.023 895.829 355.301 883.025 365.498 871.482C400.828 831.494 420.222 809.512 432.796 795.209C444.626 781.753 468.506 754.714 503.655 714.98C511.923 705.635 528.594 686.738 540.703 672.989C552.812 659.239 570.751 638.909 580.568 627.811C590.385 616.713 605.585 599.495 614.346 589.55C623.108 579.605 638.308 562.387 648.124 551.288C657.939 540.189 674.421 521.546 684.748 509.86C695.075 498.173 708.604 482.882 714.813 475.879C723.235 466.378 725.981 462.739 725.631 461.541C725.288 460.37 725.601 459.893 726.789 459.774C729.058 459.547 731.385 457.302 742.035 445.064C751.44 434.256 773.451 409.25 794.948 384.946C801.408 377.645 815.138 362.107 825.46 350.417C835.783 338.727 852.26 320.081 862.076 308.983C871.892 297.884 884.981 283.058 891.161 276.034C907.363 257.627 903.082 264.289 882.598 289.364C872.893 301.241 852.937 325.756 838.252 343.839C823.565 361.922 802.09 388.275 790.527 402.4C778.966 416.526 764.948 433.787 759.376 440.759C753.806 447.732 743.991 459.813 737.566 467.608C731.141 475.402 721.323 487.481 715.748 494.45C710.172 501.419 696.156 518.682 684.601 532.812C673.045 546.942 651.379 573.548 636.453 591.936C598.087 639.201 560.892 684.935 531.33 721.193C517.343 738.347 499.506 760.285 491.693 769.942C483.879 779.6 476.061 789.211 474.32 791.302C472.577 793.392 468.956 797.819 466.27 801.139C448.591 823 404.645 877.016 386.964 898.617C375.402 912.742 360.807 930.76 354.53 938.655C348.253 946.551 342.279 953.68 341.255 954.498C339.745 955.703 338.779 953.319 336.15 941.92C334.367 934.185 332.006 924.462 330.901 920.315C329.179 913.844 329.25 912.39 331.401 910.088C332.779 908.612 336.844 904.044 340.433 899.936ZM715.103 404.366C715.905 404.319 715.74 404.891 714.716 405.706C712.722 407.293 711.807 407.206 712.954 405.539C713.366 404.938 714.334 404.41 715.103 404.366ZM355.133 945.901C360.491 939.252 378.706 916.806 395.611 896.021C432.448 850.728 466.352 808.965 479.7 792.438C485.066 785.795 491.07 778.395 493.044 775.994C505.017 761.431 567.926 684.134 584.846 663.197C590.214 656.555 601.855 642.271 610.716 631.454C619.576 620.638 639.033 596.74 653.952 578.348C668.872 559.955 686.881 537.841 693.973 529.204C702.573 518.73 706.826 512.902 706.742 511.705C706.658 510.509 707.369 509.68 708.875 509.22C710.171 508.825 714.395 504.371 718.791 498.763C723.003 493.392 733.903 479.904 743.015 468.791C752.126 457.677 765.544 441.156 772.832 432.077C780.121 422.998 795.742 403.764 807.545 389.334C828.587 363.609 854.951 331.224 908.276 265.598C949.074 215.388 951.815 212.203 938.296 230.73C921.8 253.338 897.246 286.31 852.778 345.566C752.294 479.465 756.111 474.223 756.783 477.408C757.372 480.192 757.106 480.38 754.5 479.032C753.227 478.374 747.157 486.278 693.871 557.968C682.55 573.199 670.949 588.663 668.089 592.333C665.229 596.003 651.145 614.756 636.791 634.006C622.438 653.258 608.033 672.547 604.781 676.872C600.066 683.144 598.973 685.236 599.381 687.195C599.847 689.436 599.747 689.558 598.251 688.579C597.063 687.801 595.956 688.458 594.234 690.963C592.928 692.864 578.034 712.789 561.136 735.242C544.239 757.694 525.698 782.427 519.934 790.206C514.171 797.985 491.406 828.447 469.346 857.899C447.287 887.351 412.724 933.526 392.541 960.511C372.358 987.495 355.602 1009.67 355.306 1009.79C355.01 1009.91 353.466 1005.39 351.873 999.751C350.28 994.107 348.731 989.015 348.431 988.436C348.129 987.859 346.333 981.79 344.438 974.952C341.536 964.488 341.339 962.16 343.191 960.255C344.402 959.009 349.776 952.55 355.133 945.901ZM759.232 375.768C761.779 374.397 760.52 376.228 757.239 378.667C755.664 379.837 755.242 379.837 755.997 378.667C756.626 377.691 758.082 376.387 759.232 375.768ZM819.984 336.016C820.026 336.612 819.371 337.636 818.53 338.289C817.599 339.012 817.57 338.587 818.454 337.205C819.254 335.955 819.943 335.42 819.984 336.016ZM398.647 960.438C420.013 931.918 438.383 907.273 439.47 905.673C440.558 904.073 463.739 873.128 490.983 836.908C518.228 800.688 563.295 740.6 591.134 703.38C618.974 666.16 656.203 616.439 673.865 592.887C691.527 569.336 714.305 538.883 724.481 525.214C741.313 502.605 794.605 431.455 814.409 405.152C824.705 391.477 835.592 376.874 858.602 345.872C868.759 332.19 879.908 317.374 883.381 312.951C888.909 305.906 889.452 304.869 887.745 304.606C886.674 304.44 886.195 303.728 886.68 303.022C887.166 302.316 888.186 302.166 888.947 302.69C889.766 303.252 891.067 302.576 892.131 301.036C893.121 299.604 896.618 295.089 899.901 291.006C905.154 284.472 905.681 283.452 904.298 282.502C903.433 281.907 903.35 281.07 904.114 280.641C904.879 280.212 905.662 280.355 905.855 280.959C906.242 282.176 914.416 271.87 932.126 247.836C952.702 219.912 989.546 171.315 990.319 171.08C990.73 170.954 852.558 372.396 683.268 618.729C416.292 1007.21 375.293 1066.49 374.144 1065.7C373.415 1065.2 371.855 1061.9 370.679 1058.38C369.502 1054.85 365.802 1044.16 362.454 1034.63C357.627 1020.87 356.723 1016.77 358.085 1014.79C359.029 1013.42 377.283 988.959 398.647 960.438ZM854.275 296.791C855.054 296.745 855.311 297.262 854.847 297.937C854.383 298.612 853.587 298.879 853.08 298.531C852.572 298.182 852.315 297.667 852.508 297.385C852.702 297.103 853.497 296.836 854.275 296.791ZM860.678 302.508C860.72 303.104 860.065 304.128 859.224 304.78C858.293 305.504 858.264 305.078 859.148 303.697C859.948 302.447 860.637 301.912 860.678 302.508ZM907.305 258.494C907.018 259.453 905.958 261.029 904.948 261.997C903.938 262.964 904.173 262.18 905.47 260.253C906.766 258.327 907.592 257.535 907.305 258.494Z" fill="black" fill-opacity="0.2"/>
</svg>
