<svg width="20" height="27" viewBox="0 0 20 27" fill="none" xmlns="http://www.w3.org/2000/svg">
<path fill-rule="evenodd" clip-rule="evenodd" d="M8.96469 0.876563L8.125 1.75281V9.40187V17.0509L10 18.9062L11.875 20.7616V11.2206V1.67938L10.9984 0.839686C10.5166 0.377811 10.0506 0 9.96313 0C9.87594 0 9.42656 0.394375 8.96469 0.876563ZM1.94406 7.89906L0 9.86063V18.0553V26.25H2.03125H4.0625V16.0938C4.0625 10.5078 4.02344 5.9375 3.97531 5.9375C3.9275 5.9375 3.01344 6.82031 1.94406 7.89906ZM15.9375 16.0247V26.25H17.9688H20V18.0378V9.82563L17.9688 7.8125L15.9375 5.79937V16.0247ZM8.125 24.5312V26.25H9.91125H11.6975L10 24.5312C9.06656 23.5859 8.2625 22.8125 8.21375 22.8125C8.165 22.8125 8.125 23.5859 8.125 24.5312Z" fill="white"/>
</svg>
