<svg width="70" height="90" viewBox="0 0 70 90" fill="none" xmlns="http://www.w3.org/2000/svg">
<path fill-rule="evenodd" clip-rule="evenodd" d="M31.3764 3.00536L28.4375 6.00964V32.235V58.4604L35 64.8214L41.5625 71.1825V38.4707V5.75786L38.4945 2.87892C36.808 1.29535 35.1772 0 34.8709 0C34.5658 0 32.993 1.35214 31.3764 3.00536ZM6.80422 27.0825L0 33.8079V61.9039V90H7.10938H14.2188V55.1786C14.2188 36.0268 14.082 20.3571 13.9136 20.3571C13.7462 20.3571 10.547 23.3839 6.80422 27.0825ZM55.7812 54.9418V90H62.8906H70V61.8439V33.6879L62.8906 26.7857L55.7812 19.8836V54.9418ZM28.4375 84.1071V90H34.6894H40.9413L35 84.1071C31.733 80.8661 28.9187 78.2143 28.7481 78.2143C28.5775 78.2143 28.4375 80.8661 28.4375 84.1071Z" fill="white"/>
</svg>
